<svg xmlns="http://www.w3.org/2000/svg" width="17" height="16" viewBox="0 0 17 16" fill="none">
  <path d="M10.4735 3.59982C10.2783 3.40455 9.9617 3.40455 9.76644 3.59982C9.57118 3.79508 9.57118 4.11166 9.76644 4.30692L12.9596 7.50008H2.83333C2.55719 7.50008 2.33333 7.72394 2.33333 8.00008C2.33333 8.27622 2.55719 8.50008 2.83333 8.50008H12.9595L9.76644 11.6931C9.57118 11.8884 9.57118 12.205 9.76644 12.4003C9.9617 12.5955 10.2783 12.5955 10.4735 12.4003L14.5202 8.35359C14.614 8.25982 14.6667 8.13264 14.6667 8.00004C14.6667 7.86743 14.614 7.74025 14.5202 7.64648L10.4735 3.59982Z" fill="#ffffff"/>
</svg>