<svg xmlns="http://www.w3.org/2000/svg" width="24" height="24" viewBox="0 0 24 24" fill="none">
  <path d="M14.4955 12.0001C14.4955 11.4478 14.9432 11.0001 15.4955 11.0001H15.5045C16.0567 11.0001 16.5045 11.4478 16.5045 12.0001C16.5045 12.5524 16.0567 13.0001 15.5045 13.0001H15.4955C14.9432 13.0001 14.4955 12.5524 14.4955 12.0001Z" fill="#333333"/>
  <path d="M8.49451 11.0001C7.94222 11.0001 7.49451 11.4478 7.49451 12.0001C7.49451 12.5524 7.94222 13.0001 8.49451 13.0001H8.50349C9.05577 13.0001 9.50349 12.5524 9.50349 12.0001C9.50349 11.4478 9.05577 11.0001 8.50349 11.0001H8.49451Z" fill="#333333"/>
  <path fill-rule="evenodd" clip-rule="evenodd" d="M6.75 7.31207V6.70011C6.75 4.10811 8.81106 1.53423 11.4889 1.28348C14.6152 0.980976 17.25 3.44391 17.25 6.51011V7.31205C18.8051 7.47748 19.9182 7.97523 20.6265 8.81733C21.5048 9.8615 21.587 11.2338 21.4455 12.5126L21.4443 12.5231L20.6951 18.5168C20.5845 19.543 20.3256 20.667 19.4097 21.5038C18.4985 22.3362 17.0869 22.7501 15.0001 22.7501H9.00007C6.91322 22.7501 5.5016 22.3362 4.59046 21.5038C3.67451 20.667 3.41561 19.543 3.30506 18.5167L2.55586 12.5231L2.55462 12.5126C2.41312 11.2338 2.49534 9.8615 3.37361 8.81733C4.0819 7.97526 5.195 7.47751 6.75 7.31207ZM11.6324 2.77661C13.8655 2.55996 15.75 4.31676 15.75 6.51011V7.2501H8.25V6.70011C8.25 4.79256 9.80824 2.94687 11.6297 2.77687L11.6324 2.77661ZM4.79428 18.3371L4.04495 12.3424C3.91742 11.1839 4.0505 10.3429 4.52153 9.78287C4.98612 9.23053 5.95311 8.7501 8.00007 8.7501H16.0001C18.047 8.7501 19.014 9.23053 19.4786 9.78288C19.9496 10.3429 20.0827 11.1838 19.9552 12.3423L19.2059 18.3371L19.2043 18.3502C19.1045 19.2821 18.8975 19.94 18.398 20.3964C17.8916 20.859 16.9332 21.2501 15.0001 21.2501H9.00007C7.06692 21.2501 6.10854 20.859 5.60218 20.3964C5.10262 19.94 4.89565 19.2821 4.7958 18.3502L4.79428 18.3371Z" fill="#333333"/>
</svg>