<svg xmlns="http://www.w3.org/2000/svg" width="33" height="24" viewBox="0 0 33 24" fill="none">
  <rect width="33" height="24" rx="4" fill="#0060AF"/>
  <path fill-rule="evenodd" clip-rule="evenodd" d="M6.78728 14.2997C6.78728 13.9776 6.79092 13.1167 6.78265 13.0106C6.78986 11.7295 5.81938 10.8257 5.20627 10.8962C4.78202 10.9315 4.42639 11.0976 4.23556 11.5752C4.05854 12.0204 4.21681 12.6125 4.80509 12.7514C5.43407 12.9006 5.80146 13.0248 6.06729 13.1999C6.39301 13.4143 6.65892 13.824 6.66598 14.3002" fill="white"/>
  <path fill-rule="evenodd" clip-rule="evenodd" d="M6.52438 14.3002C6.52643 13.8873 6.28633 13.5222 5.97253 13.326C5.69418 13.1526 5.32048 13.0387 4.71762 12.8919C4.53126 12.8462 4.33633 12.7445 4.27599 12.615C4.11635 12.7694 4.08736 13.1165 4.11544 13.3194C4.14808 13.554 4.43388 13.9409 4.8642 13.9561C5.12699 13.9662 5.45924 13.9018 5.61857 13.8693C5.89343 13.8123 6.32831 13.9776 6.39754 14.2997" fill="white"/>
  <path fill-rule="evenodd" clip-rule="evenodd" d="M7.00955 8.89941C6.27985 8.89941 5.64966 9.36126 5.65186 10.1604C5.65414 10.8325 6.21722 11.1922 6.41823 11.4492C6.72186 11.8364 6.8862 12.2948 6.9032 12.9961C6.91656 13.5543 6.91588 14.1054 6.91884 14.3008H7.07984C7.07711 14.0964 7.06982 13.5113 7.0781 12.9788C7.08903 12.2773 7.25929 11.8364 7.56307 11.4492C7.76582 11.1922 8.32838 10.8325 8.32959 10.1604C8.3324 9.36126 7.70244 8.89941 6.9735 8.89941" fill="white"/>
  <path fill-rule="evenodd" clip-rule="evenodd" d="M7.19473 14.2997C7.19473 13.9776 7.19094 13.1167 7.19906 13.0106C7.19192 11.7295 8.1618 10.8257 8.77544 10.8962C9.19969 10.9315 9.55487 11.0976 9.74631 11.5752C9.92309 12.0204 9.76399 12.6125 9.17646 12.7514C8.54703 12.9006 8.18017 13.0248 7.91366 13.1999C7.58832 13.4143 7.34101 13.824 7.33342 14.3002" fill="white"/>
  <path fill-rule="evenodd" clip-rule="evenodd" d="M7.45744 14.3002C7.45517 13.8873 7.69519 13.5222 8.00808 13.326C8.28765 13.1526 8.66172 13.0387 9.26405 12.8919C9.45079 12.8462 9.64549 12.7445 9.70478 12.615C9.86517 12.7694 9.89417 13.1165 9.866 13.3194C9.83276 13.554 9.54765 13.9409 9.11808 13.9561C8.85544 13.9662 8.52137 13.9018 8.36272 13.8693C8.08892 13.8123 7.65283 13.9776 7.5833 14.2997" fill="white"/>
  <path fill-rule="evenodd" clip-rule="evenodd" d="M7.68249 15.633L7.5892 14.9791L7.81457 14.9464C7.86938 14.9392 7.93618 14.9484 7.9629 14.9813C7.99243 15.0158 8.00146 15.0443 8.00715 15.0895C8.01573 15.1454 7.99888 15.21 7.93329 15.2422V15.2441C8.00647 15.2441 8.05072 15.2946 8.06363 15.3799C8.06545 15.3979 8.07107 15.4414 8.06545 15.4776C8.05057 15.564 7.99698 15.5918 7.90635 15.604L7.68249 15.633ZM7.82755 15.516C7.85427 15.5123 7.88137 15.5109 7.90255 15.498C7.93504 15.4776 7.93208 15.4342 7.92752 15.4019C7.91629 15.331 7.89701 15.3039 7.8186 15.3151L7.76926 15.3224L7.80053 15.5196L7.82755 15.516ZM7.78042 15.2138C7.81025 15.2092 7.85063 15.2057 7.86748 15.1786C7.87636 15.1604 7.8876 15.146 7.88016 15.1056C7.87097 15.0578 7.8545 15.0281 7.79112 15.0396L7.73214 15.0487L7.75544 15.2163L7.78042 15.2138Z" fill="white"/>
  <path fill-rule="evenodd" clip-rule="evenodd" d="M8.65878 15.2399C8.66053 15.2521 8.66258 15.2656 8.66334 15.2778C8.68155 15.397 8.65878 15.4958 8.51911 15.523C8.31257 15.5611 8.27302 15.438 8.23673 15.2656L8.21738 15.1723C8.18891 15.0074 8.17669 14.8826 8.378 14.844C8.49148 14.8242 8.56648 14.8675 8.59768 14.976C8.60253 14.9921 8.60861 15.0081 8.61088 15.0244L8.48738 15.0489C8.47311 15.0081 8.45421 14.9353 8.39865 14.9414C8.2989 14.953 8.33185 15.0721 8.34209 15.1219L8.37921 15.3009C8.39037 15.355 8.41254 15.4415 8.49884 15.4248C8.56891 15.4114 8.53832 15.3066 8.53209 15.2636" fill="white"/>
  <path fill-rule="evenodd" clip-rule="evenodd" d="M8.85696 15.4377L8.8143 14.761L8.98016 14.7124L9.32805 15.3009L9.19741 15.3385L9.11497 15.1889L8.96991 15.2307L8.98866 15.4008L8.85696 15.4377ZM8.95777 15.1214L9.0626 15.0923L8.92338 14.8185L8.95777 15.1214Z" fill="white"/>
  <path fill-rule="evenodd" clip-rule="evenodd" d="M4.75855 14.9261C4.81047 14.7666 4.85693 14.6491 5.05512 14.7013C5.16117 14.7297 5.2269 14.7746 5.22379 14.8928C5.22326 14.9191 5.21423 14.946 5.20831 14.9719L5.08496 14.9393C5.10112 14.8739 5.11137 14.8221 5.02757 14.7974C4.93071 14.7719 4.9071 14.8846 4.89374 14.9333L4.84357 15.1106C4.82763 15.1633 4.8085 15.2504 4.89374 15.2729C4.96419 15.291 5.00685 15.2247 5.03235 15.1278L4.94612 15.1058L4.97595 15.0033L5.17885 15.0658L5.08253 15.4078L4.98916 15.3834L5.01019 15.3111H5.00753C4.96449 15.3703 4.91211 15.3765 4.86619 15.368C4.66329 15.3154 4.68447 15.1881 4.73289 15.018" fill="white"/>
  <path fill-rule="evenodd" clip-rule="evenodd" d="M5.51375 15.2148L5.45264 15.4929L5.31509 15.4645L5.46167 14.8149L5.69615 14.8657C5.83339 14.8942 5.87484 14.9528 5.85541 15.0736C5.84432 15.1429 5.80872 15.2175 5.72181 15.2114L5.7209 15.2103C5.79438 15.235 5.8006 15.2706 5.78777 15.332C5.78223 15.3582 5.74405 15.5169 5.77039 15.5426L5.7713 15.5621L5.62897 15.5264C5.62305 15.4825 5.64324 15.4033 5.65121 15.3595C5.65918 15.3207 5.67201 15.2661 5.63102 15.2456C5.59899 15.2291 5.587 15.2299 5.55071 15.222L5.51375 15.2148ZM5.5372 15.1142L5.62981 15.1381C5.68606 15.146 5.71733 15.118 5.72841 15.0527C5.73843 14.9929 5.72545 14.9696 5.67497 14.958L5.57569 14.9387L5.5372 15.1142Z" fill="white"/>
  <path fill-rule="evenodd" clip-rule="evenodd" d="M6.39599 14.9602L6.53202 14.9753L6.47342 15.432C6.44495 15.5768 6.38666 15.64 6.22072 15.6203C6.0519 15.5997 6.01182 15.526 6.02199 15.3801L6.08105 14.9238L6.21814 14.9388L6.15931 15.3849C6.15301 15.4333 6.1414 15.5051 6.23112 15.5138C6.31075 15.5197 6.32881 15.4689 6.33785 15.406" fill="white"/>
  <path fill-rule="evenodd" clip-rule="evenodd" d="M6.68195 15.6451L6.72294 14.9922L6.98421 15.003C7.10779 15.0089 7.14005 15.1057 7.13626 15.1981C7.13261 15.2543 7.11439 15.317 7.06338 15.351C7.02156 15.3799 6.96774 15.3868 6.91794 15.3845L6.83277 15.3799L6.81577 15.6536L6.68195 15.6451ZM6.83657 15.2803L6.9058 15.2841C6.96205 15.286 6.99932 15.2647 7.00418 15.1854C7.00698 15.1093 6.97692 15.0964 6.90405 15.0933L6.84925 15.0915L6.83657 15.2803Z" fill="white"/>
  <path fill-rule="evenodd" clip-rule="evenodd" d="M25.1148 9.53054L24.0761 11.3402C23.684 11.0345 23.2054 10.8097 22.5945 10.8097C21.149 10.8097 20.5618 11.8438 20.5618 12.5723C20.5618 13.1131 20.9307 13.9109 22.2169 13.9109C22.7568 13.9109 23.5243 13.5505 23.7451 13.3864L22.7179 15.4859C22.2282 15.5797 22.0673 15.6378 21.6528 15.6501C19.3507 15.716 18.4205 14.3586 18.4211 12.9717C18.4227 11.1381 20.1211 8.90827 22.9367 8.90827C23.1092 8.90827 23.3202 8.96561 23.5006 9.02907L23.6831 8.80518" fill="white"/>
  <path fill-rule="evenodd" clip-rule="evenodd" d="M29.4008 8.86206L29.695 15.4389H27.5059L27.5047 14.311H26.012L25.5208 15.4389H23.1467L25.6287 10.7425L25.0691 10.739L26.1324 8.86206H29.4008ZM27.4904 10.8741L26.6466 12.7871H27.5159L27.4904 10.8741Z" fill="white"/>
  <path fill-rule="evenodd" clip-rule="evenodd" d="M17.0392 8.86197C18.1232 8.86779 18.7358 9.43258 18.7358 10.2484C18.7358 11.0005 18.0897 11.6662 17.3805 12.0105C18.1107 12.2682 18.1738 12.9006 18.1738 13.3479C18.1738 14.4289 17.0439 15.4389 15.575 15.4389H12.3714L13.621 10.8078L13.1077 10.805L14.157 8.86197C14.157 8.86197 16.1576 8.85614 17.0392 8.86197V8.86197ZM15.9756 11.5285C16.1998 11.5285 16.5958 11.474 16.6948 11.0575C16.8032 10.6053 16.4317 10.5931 16.2534 10.5931L15.6166 10.5905L15.3945 11.5285H15.9756ZM15.0752 12.6908L14.782 13.7717H15.5319C15.8269 13.7717 16.229 13.631 16.3275 13.2793C16.4248 12.9266 16.1438 12.6908 15.8498 12.6908H15.0752Z" fill="white"/>
  <path fill-rule="evenodd" clip-rule="evenodd" d="M7.03839 16.2471C5.92915 16.2471 4.78932 15.9848 3.65092 15.4662L3.62299 15.4531L3.60963 15.4257C3.09877 14.3907 2.82854 13.2588 2.82854 12.1512C2.82854 11.0452 3.08769 9.9616 3.59885 8.92798L3.61297 8.90051L3.64144 8.88681C4.69451 8.408 5.82728 8.16553 7.00955 8.16553C8.11075 8.16553 9.28694 8.43546 10.4102 8.94765L10.439 8.95996L10.4524 8.98794C10.9729 10.042 11.2475 11.1738 11.2475 12.2631C11.2475 13.348 10.9839 14.4326 10.4626 15.4861L10.4489 15.5137L10.4199 15.5265C9.38289 15.9977 8.21353 16.2471 7.03839 16.2471M3.75628 15.3243C4.86211 15.8237 5.96513 16.0758 7.03839 16.0758C8.17641 16.0758 9.30812 15.837 10.3156 15.3844C10.8161 14.3636 11.0698 13.313 11.0698 12.2631C11.0698 11.2088 10.805 10.1122 10.3042 9.08906C9.21407 8.59721 8.0756 8.33638 7.00955 8.33638C5.86501 8.33638 4.76791 8.56937 3.74672 9.0291C3.25651 10.0309 3.007 11.0807 3.007 12.1512C3.007 13.2236 3.26622 14.3206 3.75628 15.3243Z" fill="white"/>
</svg>