<svg xmlns="http://www.w3.org/2000/svg" width="33" height="24" viewBox="0 0 33 24" fill="none">
  <rect width="33" height="24" rx="4" fill="white"/>
  <path fill-rule="evenodd" clip-rule="evenodd" d="M5.35164 14.2513L6.47157 15.6634H3.69883L5.35164 14.2513ZM4.99947 13.8151L2.83049 15.6677L2.8296 11.1115L4.99947 13.8151ZM10.2182 9.22726C10.2182 9.22726 9.74207 8.99776 9.18891 9.03127C8.55651 9.0692 8.02745 9.31613 7.7233 9.64197C7.53192 9.84667 7.32035 10.0964 7.21407 10.3676C7.05995 10.7599 7.02705 11.2783 7.02705 11.2783C7.02705 11.2783 6.80587 11.0872 6.52876 10.5302C6.20655 9.88244 6.11842 9.49002 6.07476 9.04233C6.03589 8.64946 6.0969 8.26099 6.0969 8.26099H10.2182V9.22726ZM10.2182 10.5189V13.3918C10.2182 13.3918 9.962 13.492 9.75301 13.492C9.54402 13.492 9.18811 13.4604 8.77475 13.229C8.36442 12.9995 8.13728 12.7219 7.96119 12.4703C7.78262 12.2143 7.63517 11.8596 7.59132 11.6039C7.55611 11.3994 7.51813 10.8892 7.7233 10.4746C7.83464 10.2496 8.13346 9.86393 8.70876 9.842C9.1777 9.82367 9.43774 9.9492 9.67608 10.0824C10.1296 10.3363 10.2182 10.5189 10.2182 10.5189ZM5.73059 13.19L6.47397 12.5591C6.23706 12.251 6.17445 12.1349 5.90961 11.7371C5.63845 11.3299 5.41132 10.882 5.21709 10.3564C5.00685 9.78701 4.95607 9.46737 4.97928 9.04233C5.00836 8.50154 5.12913 8.26099 5.12913 8.26099H2.82854L2.8296 9.52344C2.8296 9.52344 4.59065 11.7705 5.73059 13.19ZM7.85465 15.6613H10.2182V13.9066C10.2182 13.9066 9.63197 14.1804 9.2509 14.2025C9.02403 14.216 8.80383 14.2249 8.44854 14.1286C8.0536 14.0218 7.82922 13.9176 7.46317 13.6102C7.16916 13.3637 6.83299 12.9995 6.83299 12.9995L6.08525 13.6343C6.43218 14.0664 6.68839 14.3809 6.76683 14.4655C7.10406 14.8284 7.24698 14.9617 7.47411 15.0911C7.70116 15.2206 8.45975 15.2136 8.45975 15.2136L7.85465 15.6613Z" fill="#E94E0F"/>
  <path fill-rule="evenodd" clip-rule="evenodd" d="M28.0938 14.1005C28.0938 14.6089 28.1611 15.4447 27.6019 15.6481V15.682H29.7258V15.6481C29.167 15.4335 29.234 14.6089 29.234 14.1005V9.84227C29.234 9.33411 29.167 8.49822 29.7258 8.28363V8.24976H27.6019V8.28363C28.1721 8.49822 28.0938 9.32279 28.0938 9.84227V14.1005ZM20.3059 9.84227L24.1402 14.7558C24.6319 15.3995 24.9787 15.7724 25.7723 16.0433V9.70676C25.7723 9.07432 25.7723 8.62241 26.3538 8.28363V8.24976H24.3861V8.28363C24.9787 8.62241 24.9673 9.07432 24.9673 9.70676V13.9877L20.8761 8.76924L20.7194 8.54333C20.6413 8.45302 20.5967 8.39659 20.552 8.26108V8.24976H18.9196V8.28363C19.501 8.62241 19.501 9.07432 19.501 9.70676V14.2137C19.501 14.8461 19.501 15.2978 18.9087 15.6481V15.682H20.8873V15.6481C20.2948 15.2978 20.3059 14.8461 20.3059 14.2137V9.84227ZM14.0558 11.243V9.02921L14.8046 8.94995C15.4754 8.8822 16.1907 9.28891 16.1907 10.0684C16.1907 10.9946 15.1511 11.243 14.4247 11.243H14.0558ZM14.0558 14.7783V11.9883L14.8381 11.9432C15.8219 11.8867 16.8726 12.3613 16.8726 13.4568C16.8726 14.5299 15.9451 14.959 15.0282 14.8687L14.0558 14.7783ZM12.9154 14.0893C12.9154 14.609 12.9826 15.4335 12.4234 15.6481V15.682H14.268C15.1064 15.682 15.9897 15.7159 16.7721 15.3319C17.5211 14.9704 18.1136 14.2248 18.1136 13.355C18.1136 12.2483 17.2974 11.5705 16.2913 11.3557C16.9286 11.0735 17.4091 10.6443 17.4091 9.88747C17.4091 8.8822 16.5486 8.24976 15.0731 8.24976H12.4234V8.28363C12.9939 8.49822 12.9154 9.32279 12.9154 9.83095V14.0893Z" fill="#005B6A"/>
</svg>