<svg xmlns="http://www.w3.org/2000/svg" width="33" height="24" viewBox="0 0 33 24" fill="none">
  <rect width="33" height="24" rx="4" fill="#00529C"/>
  <path fill-rule="evenodd" clip-rule="evenodd" d="M9.78274 10.4119H11.3556C11.9925 10.4119 12.4673 10.6988 12.4673 11.3028C12.4673 11.7457 12.2472 11.9923 11.8648 12.123V12.133C12.3206 12.2289 12.5557 12.4806 12.5557 12.9081C12.5557 13.7488 11.8353 13.9249 11.223 13.9249H9.78274V10.4119ZM10.6937 11.801H10.9487C11.2476 11.801 11.5564 11.7255 11.5564 11.4283C11.5564 11.1066 11.2624 11.0761 10.9583 11.0761H10.6937V11.801ZM10.6937 13.2606H10.9637C11.2965 13.2606 11.6443 13.2102 11.6443 12.8528C11.6443 12.4706 11.2868 12.4351 10.9732 12.4351H10.6937V13.2606Z" fill="white"/>
  <path fill-rule="evenodd" clip-rule="evenodd" d="M13.7517 10.4119H14.8688L16.1868 13.9249H15.1872L14.9327 13.1751H13.649L13.3794 13.9249H12.4535L13.7517 10.4119ZM14.3105 11.1368H14.3002L13.8596 12.5109H14.7169L14.3105 11.1368Z" fill="white"/>
  <path fill-rule="evenodd" clip-rule="evenodd" d="M16.3137 10.4119H17.4748L18.6311 12.7977H18.6406L18.6262 10.4119H19.4593V13.9249H18.3275L17.1316 11.5242H17.1222L17.1515 13.9249H16.3137V10.4119Z" fill="white"/>
  <path fill-rule="evenodd" clip-rule="evenodd" d="M19.7686 10.4119H20.6798V11.8467H20.6896L21.7181 10.4119H22.816L21.5517 12.0475L22.914 13.9249H21.7524L20.6896 12.3295H20.6798V13.9249H19.7686V10.4119Z" fill="white"/>
  <path fill-rule="evenodd" clip-rule="evenodd" d="M24.0437 10.4119H25.6166C26.2533 10.4119 26.7287 10.6988 26.7287 11.3028C26.7287 11.7457 26.5086 11.9923 26.1263 12.123V12.133C26.5818 12.2289 26.817 12.4806 26.817 12.9081C26.817 13.7488 26.0967 13.9249 25.4846 13.9249H24.0437V10.4119ZM24.9552 11.801H25.2097C25.5087 11.801 25.8171 11.7255 25.8171 11.4283C25.8171 11.1066 25.5235 11.0761 25.2199 11.0761H24.9552V11.801ZM24.9552 13.2606H25.2248C25.5577 13.2606 25.9057 13.2102 25.9057 12.8528C25.9057 12.4706 25.5481 12.4351 25.2345 12.4351H24.9552V13.2606Z" fill="white"/>
  <path fill-rule="evenodd" clip-rule="evenodd" d="M27.0189 10.4119H28.6456C29.253 10.4119 29.7481 10.6936 29.7481 11.2979C29.7481 11.7659 29.5325 12.078 29.0916 12.1835V12.1935C29.385 12.2742 29.405 12.5408 29.5764 12.9686L29.9097 13.9249H28.9594L28.7633 13.2911C28.577 12.6871 28.4593 12.5357 28.1213 12.5357H27.9301V13.9249H27.0189V10.4119ZM27.9301 11.8715H28.1703C28.4643 11.8715 28.8368 11.8612 28.8368 11.4637C28.8368 11.1368 28.518 11.0761 28.1703 11.0761H27.9301V11.8715Z" fill="white"/>
  <mask id="mask0_3443_158" style="mask-type:luminance" maskUnits="userSpaceOnUse" x="1" y="8" width="31" height="8">
    <path fill-rule="evenodd" clip-rule="evenodd" d="M1.88572 15.6989H31.0719V8.64014H1.88572V15.6989Z" fill="white"/>
  </mask>
  <g mask="url(#mask0_3443_158)">
    <path fill-rule="evenodd" clip-rule="evenodd" d="M30.1608 13.9249H31.0719V10.4119H30.1608V13.9249Z" fill="white"/>
    <path fill-rule="evenodd" clip-rule="evenodd" d="M7.70321 8.64014H2.93389C2.35498 8.64014 1.88568 9.13418 1.88568 9.74373V9.75537V14.5956C1.88568 15.1992 2.34633 15.6899 2.91778 15.6989H7.70068C8.27973 15.6989 8.74918 15.2049 8.74918 14.5956L8.75142 9.74373C8.75142 9.13418 8.28227 8.64014 7.70321 8.64014ZM3.50086 15.1333L3.24064 15.1362C2.92569 15.1362 2.67038 14.8704 2.67038 14.5425L2.66889 14.4957V10.0149L2.67053 9.7736C2.68231 9.45619 2.91704 9.20066 3.22453 9.20066H3.75348C4.23277 9.20066 4.62154 9.62883 4.62154 10.1341C4.62154 10.3838 4.52625 10.6105 4.3719 10.7753L3.02232 12.1821L4.2872 13.5052C4.45034 13.6778 4.54892 13.9049 4.54892 14.1535C4.54892 14.6947 4.07962 15.1333 3.50086 15.1333ZM7.38946 15.1289L5.03119 15.1278C5.03119 15.1278 5.30394 14.5224 5.30394 14.1477C5.30394 13.6909 5.15511 13.2826 4.92233 13.0125L4.11571 12.1678L4.93903 11.294C5.18404 11.0573 5.34688 10.6373 5.34688 10.1589C5.34688 9.78003 5.24488 9.44439 5.0807 9.20066H5.65214C6.13158 9.20066 6.52035 9.62883 6.52035 10.1341C6.52035 10.3838 6.42521 10.6105 6.27087 10.7753L4.94708 12.1674L7.6965 15.0475C7.60942 15.1039 7.49951 15.1289 7.38946 15.1289ZM7.96538 14.2296L5.99498 12.1668L6.93343 11.1869C7.12461 10.9417 7.2457 10.572 7.2457 10.1589C7.2457 9.77758 7.14221 9.43382 6.97653 9.18994L7.39661 9.20281C7.71157 9.20281 7.96687 9.46906 7.96687 9.79689L7.96538 14.2296Z" fill="white"/>
  </g>
</svg>