<svg xmlns="http://www.w3.org/2000/svg" width="16" height="16" viewBox="0 0 16 16" fill="none">
  <path d="M13.0987 4.03445C13.4115 3.72157 13.4115 3.21429 13.0987 2.90141C12.7858 2.58853 12.2785 2.58853 11.9656 2.90141L7.99999 6.86704L4.03435 2.90141C3.72148 2.58853 3.2142 2.58853 2.90132 2.90141C2.58844 3.21429 2.58844 3.72157 2.90132 4.03445L6.86695 8.00008L2.90132 11.9657C2.58844 12.2786 2.58844 12.7859 2.90132 13.0988C3.2142 13.4116 3.72148 13.4116 4.03435 13.0988L7.99999 9.13312L11.9656 13.0988C12.2785 13.4116 12.7858 13.4116 13.0987 13.0988C13.4115 12.7859 13.4115 12.2786 13.0987 11.9657L9.13303 8.00008L13.0987 4.03445Z" fill="#333333"/>
</svg>