<svg xmlns="http://www.w3.org/2000/svg" width="32" height="32" viewBox="0 0 32 32" fill="none">
  <path d="M28 10.6666C28.7072 10.6666 29.3855 10.9476 29.8856 11.4477C30.3857 11.9478 30.6667 12.626 30.6667 13.3333V18.6666C30.6667 19.3739 30.3857 20.0521 29.8856 20.5522C29.3855 21.0523 28.7072 21.3333 28 21.3333H26.584C26.2589 23.911 25.0044 26.2815 23.0557 27.9999C21.107 29.7184 18.5981 30.6666 16 30.6666V28C18.1217 28 20.1566 27.1571 21.6569 25.6568C23.1571 24.1565 24 22.1217 24 20V11.9999C24 9.87822 23.1571 7.84339 21.6569 6.3431C20.1566 4.8428 18.1217 3.99995 16 3.99995C13.8783 3.99995 11.8434 4.8428 10.3431 6.3431C8.84285 7.84339 8 9.87822 8 11.9999V21.3333H3.99999C3.29275 21.3333 2.61447 21.0523 2.11438 20.5522C1.61428 20.0521 1.33333 19.3739 1.33333 18.6666V13.3333C1.33333 12.626 1.61428 11.9478 2.11438 11.4477C2.61447 10.9476 3.29275 10.6666 3.99999 10.6666H5.41599C5.74137 8.08914 6.9961 5.71898 8.94476 4.00085C10.8934 2.28272 13.4021 1.33472 16 1.33472C18.5979 1.33472 21.1066 2.28272 23.0552 4.00085C25.0039 5.71898 26.2586 8.08914 26.584 10.6666H28ZM10.3467 21.0466L11.76 18.7853C13.0308 19.5813 14.5005 20.0024 16 20C17.4995 20.0024 18.9692 19.5813 20.24 18.7853L21.6533 21.0466C19.959 22.1081 17.9994 22.6697 16 22.6666C14.0006 22.6698 12.041 22.1082 10.3467 21.0466Z" fill="#658C4A"/>
</svg>