<svg xmlns="http://www.w3.org/2000/svg" width="33" height="24" viewBox="0 0 33 24" fill="none">
  <rect width="33" height="24" rx="4" fill="#108EE9"/>
  <path fill-rule="evenodd" clip-rule="evenodd" d="M7.12305 8.15991H7.01305C6.09895 8.17951 5.1986 8.55191 4.53475 9.19255C3.7565 9.92615 3.3099 10.9952 3.3 12.0726V12.1729C3.3187 13.2279 3.75265 14.2723 4.50835 14.9981C5.1777 15.6566 6.0951 16.0402 7.02625 16.0559H7.13405C8.39245 16.0414 9.60355 15.324 10.2581 14.2337C10.818 13.3298 10.9901 12.193 10.7415 11.1565C10.5331 10.2622 10.0073 9.44735 9.27905 8.90303C8.6603 8.43263 7.8947 8.17447 7.12305 8.15991ZM5.4142 11.3682C5.7695 11.474 6.14845 11.4096 6.4944 11.2959C6.68504 11.2319 6.8727 11.1588 7.06037 11.0856L7.06038 11.0856L7.06039 11.0856C7.3638 10.9674 7.66723 10.8491 7.98325 10.7695C8.4062 10.6687 8.8814 10.7499 9.2202 11.0355C9.28723 11.1011 9.28708 11.1958 9.28694 11.2856C9.28691 11.3078 9.28687 11.3297 9.28785 11.3508C9.28407 11.6399 9.28542 11.929 9.28676 12.2182V12.2183V12.2183V12.2183V12.2183V12.2183C9.28874 12.6444 9.29072 13.0705 9.2763 13.4962C9.22526 13.474 9.17448 13.4506 9.12364 13.4271L9.12361 13.4271C8.91426 13.3303 8.70377 13.233 8.46835 13.2285C7.9774 13.201 7.52355 13.3669 7.06885 13.5331C6.69886 13.6684 6.3283 13.8039 5.9367 13.8355C5.5814 13.8607 5.21015 13.775 4.92195 13.5572C4.86291 13.474 4.86586 13.3698 4.86874 13.2679V13.2679C4.86991 13.2264 4.87107 13.1853 4.86805 13.1462C4.87353 12.8874 4.8711 12.6282 4.86868 12.3689C4.86477 11.9509 4.86086 11.5329 4.89005 11.1167C4.95488 11.1461 5.01726 11.1811 5.07962 11.2161L5.07963 11.2161C5.18709 11.2764 5.29448 11.3366 5.4142 11.3682ZM12.8705 10.1265C12.676 10.1277 12.4814 10.129 12.287 10.1266C12.2867 10.7914 12.2867 11.4562 12.2867 12.1211C12.2867 12.7861 12.2867 13.4511 12.2865 14.1161C12.5032 14.1164 12.7197 14.1164 12.9363 14.1164C13.1528 14.1164 13.3694 14.1164 13.5861 14.1166C13.9013 14.1172 14.2197 14.0556 14.5013 13.9072C15.2504 13.5331 15.6844 12.6338 15.5408 11.7999C15.422 10.9319 14.6773 10.1944 13.8122 10.1356C13.4984 10.1225 13.1844 10.1245 12.8705 10.1265ZM13.1056 12.9314C13.1072 12.2825 13.1089 11.6335 13.1032 10.9846C13.1872 10.9872 13.2717 10.9857 13.3563 10.9842H13.3563H13.3563H13.3563H13.3563C13.5414 10.9809 13.7267 10.9776 13.9079 11.0176C14.3594 11.1229 14.7076 11.5513 14.7395 12.0194C14.7873 12.4854 14.5217 12.9664 14.0993 13.1568C13.8703 13.267 13.6186 13.2616 13.3696 13.2563H13.3696C13.2806 13.2544 13.192 13.2525 13.1049 13.2559L13.1056 12.9314ZM16.9961 11.74C17.0225 10.8748 17.7876 10.0975 18.6478 10.1272C19.4909 10.1182 20.2312 10.8787 20.2648 11.7271C20.2735 12.2145 20.2722 12.7021 20.2708 13.1897V13.1897V13.1897V13.1898C20.27 13.4982 20.2691 13.8066 20.2708 14.115L20.2703 14.115C19.9971 14.1155 19.7245 14.1161 19.4519 14.115C19.4505 13.9721 19.4506 13.8293 19.4508 13.6866V13.6866V13.6866V13.6865C19.4509 13.5438 19.451 13.4012 19.4497 13.2587C19.128 13.2604 18.8066 13.2601 18.4853 13.2598C18.2604 13.2596 18.0355 13.2594 17.8107 13.2598C17.8098 13.3663 17.8102 13.4728 17.8106 13.5794V13.5794V13.5794V13.5794C17.8113 13.7593 17.812 13.9392 17.8068 14.1189C17.6253 14.1144 17.4441 14.1149 17.263 14.1154H17.263H17.2629H17.2629H17.2628H17.2628H17.2628C17.1722 14.1156 17.0817 14.1159 16.9912 14.1155C16.9922 13.8277 16.9914 13.5399 16.9907 13.252V13.2515V13.2515V13.2515V13.2515C16.9894 12.7475 16.9881 12.2435 16.9961 11.74ZM18.0202 11.2707C17.797 11.5163 17.8035 11.8476 17.8097 12.1652V12.1652V12.1652V12.1652C17.8113 12.2459 17.8129 12.3258 17.8107 12.403C18.0291 12.4033 18.2476 12.4031 18.4661 12.403H18.4661H18.4662H18.4662H18.4665C18.7943 12.4028 19.1221 12.4026 19.4497 12.4036C19.4476 12.3266 19.4494 12.2471 19.4511 12.1668C19.458 11.8565 19.4651 11.5332 19.255 11.2881C18.9618 10.8961 18.3238 10.8871 18.0202 11.2707ZM21.7036 11.749C21.7278 10.9874 22.3124 10.2806 23.0544 10.1524C23.6066 10.0443 24.1984 10.2655 24.5581 10.7034C24.8364 11.0154 24.9783 11.4376 24.9783 11.8565C24.9794 12.3579 24.979 12.8591 24.9786 13.3604V13.3624C24.9784 13.6134 24.9783 13.8644 24.9783 14.1155C24.8855 14.1161 24.7927 14.1157 24.6998 14.1154H24.6998H24.6998C24.5207 14.1147 24.3415 14.1141 24.1626 14.12C24.1567 13.6933 24.1576 13.2664 24.1586 12.8396C24.1593 12.5113 24.16 12.183 24.1577 11.8548C24.1621 11.5502 24.002 11.2466 23.7402 11.0954C23.4685 10.9297 23.1006 10.9543 22.8514 11.1537C22.6358 11.3178 22.5154 11.591 22.5192 11.8632C22.5179 12.2924 22.5181 12.7213 22.5183 13.1504C22.5184 13.472 22.5186 13.7937 22.5181 14.1155C22.4183 14.1151 22.3185 14.1153 22.2187 14.1155H22.2186C22.044 14.1158 21.8694 14.1161 21.6948 14.1133C21.7006 13.7334 21.6995 13.3534 21.6984 12.9734C21.6973 12.5652 21.6961 12.157 21.7036 11.749ZM26.6734 10.9C26.9896 10.3982 27.5737 10.0746 28.1639 10.1317C28.831 10.1737 29.4228 10.6911 29.6076 11.3379C29.6758 11.5563 29.6791 11.7844 29.6823 12.0123V12.0124C29.6841 12.1427 29.686 12.273 29.7 12.4014V14.111C29.4905 14.1169 29.2809 14.1162 29.0714 14.1154C29.0015 14.1152 28.9317 14.115 28.8618 14.115C28.8615 14.023 28.8616 13.9309 28.8618 13.8389C28.8621 13.6445 28.8624 13.4501 28.858 13.2559C28.5262 13.261 28.1943 13.2603 27.8622 13.2596H27.8622C27.6487 13.2592 27.4352 13.2587 27.2217 13.2598C27.2214 13.4023 27.2214 13.5449 27.2214 13.6875C27.2214 13.83 27.2214 13.9727 27.2212 14.1155H26.4017C26.4014 13.7479 26.4014 13.3804 26.4014 13.0129C26.4014 12.6455 26.4014 12.2782 26.4011 11.9108C26.3973 11.5569 26.4803 11.1974 26.6734 10.9ZM27.4269 11.2763C27.208 11.521 27.2145 11.8497 27.2208 12.1648C27.2224 12.2456 27.2239 12.3256 27.2217 12.403C27.5862 12.4034 27.9507 12.4033 28.3151 12.4032L28.8613 12.403C28.8588 12.324 28.8605 12.2425 28.8623 12.1601C28.8688 11.8511 28.8755 11.53 28.6649 11.2864C28.369 10.8938 27.7283 10.8888 27.4269 11.2763Z" fill="white"/>
</svg>