<svg xmlns="http://www.w3.org/2000/svg" width="32" height="32" viewBox="0 0 32 32" fill="none">
  <path d="M15 29.3334C14.2667 29.3334 13.5276 29.2498 12.7827 29.0827C12.0378 28.9156 11.2769 28.6769 10.5 28.3667C10.7667 25.6778 11.5444 23.1667 12.8333 20.8334C14.1222 18.5 15.7778 16.4445 17.8 14.6667C15.3556 15.9111 13.2387 17.5556 11.4493 19.6C9.66 21.6445 8.41022 23.9778 7.7 26.6C7.61111 26.5334 7.52756 26.4614 7.44934 26.384L7.2 26.1334C6.15556 25.0889 5.36089 23.9222 4.816 22.6334C4.27111 21.3445 3.99911 20 4 18.6C4 17.0889 4.3 15.6445 4.9 14.2667C5.5 12.8889 6.33334 11.6667 7.4 10.6C9.2 8.80002 11.5333 7.62802 14.4 7.08402C17.2667 6.54002 21.2889 6.4898 26.4667 6.93335C26.8667 12.2445 26.8 16.2947 26.2667 19.084C25.7333 21.8734 24.5778 24.1565 22.8 25.9334C21.7111 27.0222 20.4942 27.8614 19.1493 28.4507C17.8044 29.04 16.4213 29.3342 15 29.3334Z" fill="#658C4A"/>
</svg>