<svg xmlns="http://www.w3.org/2000/svg" width="33" height="24" viewBox="0 0 33 24" fill="none">
  <rect width="33" height="24" rx="4" fill="white"/>
  <path fill-rule="evenodd" clip-rule="evenodd" d="M5.32084 9.19084C5.6338 9.13892 5.95489 9.14494 6.26934 9.17692C6.56087 9.23824 6.85499 9.30671 7.12251 9.44403C7.66382 9.707 8.12459 10.1333 8.43164 10.6581C8.68622 11.143 8.86137 11.687 8.83513 12.2427C8.84252 13.3834 8.13272 14.4703 7.12731 14.9552C6.47552 15.2709 5.71731 15.3141 5.0208 15.1411C4.54969 14.9936 4.09521 14.7551 3.75195 14.3886C3.42494 14.0798 3.17812 13.6862 3.02145 13.2626C2.81712 12.7416 2.79864 12.1622 2.88547 11.6133C3.04436 10.798 3.53912 10.0505 4.23932 9.61709C4.56521 9.39851 4.93988 9.26871 5.32084 9.19084ZM4.90256 10.6547C4.66682 10.6791 4.40928 10.7634 4.27885 10.9801C4.13475 11.1877 4.11972 11.4473 4.10544 11.6939L4.10186 11.7544C4.09892 11.8166 4.09347 11.8787 4.08801 11.9409C4.077 12.0662 4.06599 12.1917 4.07563 12.3179C4.08281 12.4032 4.08788 12.4888 4.09295 12.5743C4.10561 12.7881 4.11828 13.002 4.16394 13.2118C4.22047 13.4763 4.45436 13.6814 4.71227 13.7295C5.19294 13.8177 5.6826 13.81 6.16932 13.8023L6.30296 13.8002C6.50212 13.7889 6.70128 13.7683 6.89822 13.7363C7.19308 13.6972 7.45358 13.4526 7.50198 13.1516C7.5866 12.7826 7.60175 12.4018 7.57662 12.0252C7.52933 11.7837 7.36157 11.5659 7.13359 11.4775C7.03088 11.4269 6.91695 11.4273 6.8052 11.4276C6.78549 11.4276 6.76586 11.4277 6.74636 11.4274C6.52666 11.4277 6.30696 11.4276 6.08728 11.4275H6.0869H6.08689C5.70225 11.4272 5.31767 11.427 4.93323 11.4289C4.88904 11.4298 4.84779 11.4144 4.80691 11.3991C4.79174 11.3935 4.77662 11.3878 4.76142 11.383C4.76031 11.2988 4.76326 11.1727 4.87448 11.1705C5.16408 11.1638 5.45395 11.1658 5.7438 11.1678C6.12555 11.1703 6.50726 11.1729 6.88825 11.1558C6.84686 10.9602 6.72973 10.7559 6.52799 10.7017C6.34582 10.6521 6.15738 10.6269 5.97004 10.6092C5.91661 10.6085 5.86309 10.6075 5.80953 10.6064C5.50606 10.6005 5.20124 10.5946 4.90256 10.6547ZM6.96584 12.298C6.86866 12.2713 6.75227 12.3104 6.71828 12.4124C6.69694 12.5297 6.73113 12.6428 6.76509 12.7552C6.77935 12.8023 6.79358 12.8494 6.80363 12.8966L6.89231 12.9489C6.93037 12.9263 6.96917 12.906 7.00944 12.8883C7.01379 12.789 7.03729 12.6935 7.06078 12.5981C7.0712 12.5557 7.08162 12.5134 7.09036 12.4707C7.07226 12.4003 7.02681 12.336 6.96584 12.298Z" fill="#01ACD7"/>
  <path fill-rule="evenodd" clip-rule="evenodd" d="M12.6313 10.1283C12.3464 10.0147 12.0302 10.0275 11.7316 10.0651C11.0857 10.1667 10.5189 10.6685 10.3275 11.3047C10.2407 11.5568 10.2425 11.8288 10.2654 12.0918C10.3427 12.7644 10.8396 13.3551 11.4704 13.5609C11.9175 13.6986 12.4333 13.7031 12.846 13.4567C12.8999 13.4263 12.9489 13.3888 12.9978 13.3513L12.9978 13.3513C13.0435 13.3163 13.0893 13.2812 13.139 13.252L13.1398 13.287C13.1459 13.5643 13.1528 13.8779 12.9461 14.0872C12.8076 14.2595 12.5981 14.3502 12.3863 14.3833C11.9285 14.4687 11.4445 14.3096 11.1042 13.9905C11.0285 14.069 10.9493 14.1439 10.87 14.2189C10.7418 14.3401 10.6136 14.4613 10.5008 14.5974C10.857 14.9405 11.3082 15.188 11.7974 15.2539C12.2755 15.3152 12.7898 15.2855 13.2159 15.0353C13.5772 14.831 13.8618 14.4822 13.9733 14.0755C14.0426 13.8729 14.0417 13.6564 14.0407 13.4446L14.0406 13.4089C14.0402 12.2874 14.0402 11.1663 14.0406 10.0448C13.8675 10.0426 13.6943 10.0427 13.5212 10.0428C13.3961 10.0429 13.2711 10.0429 13.146 10.0421L13.1465 10.1345C13.147 10.2347 13.1476 10.3348 13.1453 10.4349C12.9912 10.3066 12.8209 10.1934 12.6313 10.1283ZM11.4966 11.1057C11.6448 10.9718 11.8413 10.9206 12.0331 10.8916C12.4148 10.8326 12.8442 11.0105 13.0396 11.3585C13.1184 11.4995 13.1152 11.6589 13.1119 11.8167V11.8168C13.1108 11.872 13.1096 11.9271 13.112 11.9812C13.1442 12.313 12.8903 12.6057 12.5995 12.7185C12.2482 12.8532 11.8147 12.8623 11.5081 12.6136C11.0484 12.2626 11.0392 11.4616 11.4966 11.1057ZM20.4817 10.0429C20.0996 10.0403 19.7013 10.1565 19.426 10.4372L19.419 10.3297L19.419 10.3295C19.415 10.2678 19.4111 10.2062 19.4064 10.1448C19.1057 10.1411 18.8049 10.1399 18.5041 10.1448C18.5045 11.0733 18.5045 12.0018 18.5044 12.9303V12.9401C18.5044 13.6332 18.5043 14.3263 18.5045 15.0195C18.7158 15.0333 18.9277 15.0321 19.1395 15.0309C19.238 15.0304 19.3365 15.0298 19.4349 15.0308C19.4418 14.6006 19.4402 14.1701 19.4387 13.7397C19.4382 13.5927 19.4377 13.4457 19.4375 13.2987C20.1011 13.8355 21.1575 13.7765 21.7542 13.1606C22.4038 12.4973 22.4411 11.3152 21.8156 10.623C21.4863 10.2378 20.9809 10.0248 20.4817 10.0429ZM19.4811 11.4394C19.5783 11.1418 19.8753 10.9642 20.1639 10.9059C20.4614 10.8446 20.7939 10.921 21.0237 11.1271C21.4132 11.4876 21.4161 12.1802 21.0489 12.5575C20.6805 12.9206 20.0287 12.9138 19.6625 12.5507C19.5066 12.4104 19.4249 12.1907 19.4386 11.9808C19.4416 11.9254 19.4402 11.8693 19.4387 11.813C19.4354 11.6858 19.4321 11.5584 19.4811 11.4394ZM15.8061 10.0892C16.3311 9.98156 16.9057 10.0463 17.3627 10.3439C17.7104 10.5575 17.975 10.904 18.0932 11.2994C18.2555 11.819 18.1827 12.4134 17.8789 12.8656C17.5771 13.3212 17.0616 13.6004 16.5295 13.6527C16.2018 13.6753 15.863 13.664 15.5529 13.5424C15.0393 13.3668 14.6085 12.9352 14.457 12.4021C14.2944 11.9025 14.3698 11.3307 14.6484 10.8882C14.9063 10.4744 15.3386 10.1919 15.8061 10.0892ZM16.0259 10.9108C15.8951 10.9488 15.7728 11.015 15.6656 11.0997C15.2947 11.3973 15.2041 11.9857 15.4683 12.3841C15.7702 12.8908 16.5491 12.9909 16.9578 12.5665C17.1577 12.3796 17.2526 12.1004 17.226 11.8269C17.2486 11.2204 16.5879 10.7317 16.0259 10.9108ZM24.6031 10.0655C24.0654 9.9936 23.4831 10.07 23.0371 10.4044C22.7796 10.6129 22.5594 10.8995 22.5158 11.2404C22.6442 11.2628 22.7715 11.291 22.8988 11.3193C23.0647 11.3562 23.2306 11.393 23.3989 11.4168C23.4717 11.1192 23.7251 10.8826 24.0226 10.8337C24.2151 10.7998 24.4154 10.81 24.6027 10.8679C24.7664 10.9221 24.8909 11.1046 24.8192 11.2784C24.6857 11.4023 24.504 11.4398 24.331 11.4755C24.3087 11.4801 24.2865 11.4847 24.2646 11.4894L24.1745 11.5025C23.7353 11.5656 23.2786 11.6313 22.9049 11.8897C22.4426 12.2189 22.4408 12.9935 22.8683 13.3532C23.2211 13.6621 23.7181 13.6975 24.1608 13.6376C24.4671 13.5793 24.7756 13.4443 24.9711 13.1873C24.9722 13.2507 24.9722 13.3141 24.9722 13.3775C24.9722 13.441 24.9722 13.5045 24.9733 13.568L25.1757 13.5675H25.1758C25.3896 13.5668 25.6037 13.5661 25.818 13.5695C25.8188 13.1445 25.8187 12.7196 25.8186 12.2948V12.2948V12.2948C25.8185 11.9761 25.8184 11.6575 25.8187 11.339C25.822 11.0805 25.7293 10.8288 25.5896 10.6159C25.3628 10.2916 24.9777 10.1279 24.6031 10.0655ZM23.4399 12.6403C23.3911 12.5225 23.4853 12.4063 23.5796 12.3483C23.7696 12.2417 23.9835 12.2019 24.197 12.1622C24.4542 12.1144 24.7109 12.0666 24.9245 11.9021C24.9225 11.9538 24.9241 12.0079 24.9258 12.0627V12.0627V12.0627C24.9313 12.2479 24.9371 12.4416 24.8037 12.5797C24.5458 12.8416 24.153 12.8897 23.8061 12.8671C23.662 12.8585 23.4724 12.8077 23.4399 12.6403ZM26.1899 10.1422C26.0906 10.1424 25.9912 10.1426 25.8919 10.1426C26.154 10.7002 26.4219 11.255 26.6898 11.8099C26.9412 12.3305 27.1927 12.8512 27.4393 13.3743C27.3181 13.6457 27.1863 13.9121 27.0545 14.1786C26.9151 14.4602 26.7758 14.7418 26.649 15.0293C26.7557 15.0288 26.8625 15.0296 26.9694 15.0305C27.2069 15.0323 27.4445 15.0342 27.6817 15.0217C28.4603 13.3972 29.238 11.7727 30.0151 10.1475C29.6659 10.1384 29.3171 10.1399 28.9683 10.146C28.6335 10.8943 28.2947 11.6411 27.954 12.3863C27.8536 12.1655 27.7521 11.9451 27.6505 11.7248C27.4847 11.3648 27.3189 11.0049 27.1578 10.643C27.132 10.584 27.1035 10.5263 27.0751 10.4685C27.023 10.3626 26.9708 10.2567 26.935 10.1437C26.6866 10.1413 26.4383 10.1418 26.1899 10.1422Z" fill="#010101"/>
</svg>