<svg width="32" height="32" viewBox="0 0 32 32" fill="none" xmlns="http://www.w3.org/2000/svg">
<rect width="32" height="32" rx="16" fill="#333333"/>
<path d="M13.337 16.041C13.337 14.567 14.5313 13.3718 16.0049 13.3718C17.4784 13.3718 18.6733 14.567 18.6733 16.041C18.6733 17.5151 17.4784 18.7103 16.0049 18.7103C14.5313 18.7103 13.337 17.5151 13.337 16.041ZM11.8945 16.041C11.8945 18.3119 13.7347 20.1526 16.0049 20.1526C18.275 20.1526 20.1152 18.3119 20.1152 16.041C20.1152 13.7702 18.275 11.9295 16.0049 11.9295C13.7347 11.9295 11.8945 13.7702 11.8945 16.041ZM19.3174 11.7665C19.3173 11.9565 19.3736 12.1423 19.479 12.3004C19.5845 12.4584 19.7345 12.5816 19.91 12.6544C20.0855 12.7272 20.2786 12.7463 20.465 12.7093C20.6513 12.6723 20.8225 12.5809 20.9569 12.4465C21.0913 12.3122 21.1829 12.1411 21.22 11.9547C21.2571 11.7683 21.2382 11.5751 21.1656 11.3995C21.0929 11.2239 20.9699 11.0738 20.8119 10.9681C20.654 10.8625 20.4683 10.8061 20.2783 10.806H20.278C20.0233 10.8061 19.7791 10.9073 19.599 11.0874C19.4189 11.2675 19.3176 11.5117 19.3174 11.7665V11.7665ZM12.7709 22.5586C11.9905 22.5231 11.5663 22.3931 11.2844 22.2832C10.9107 22.1377 10.644 21.9643 10.3637 21.6843C10.0833 21.4042 9.90975 21.1377 9.7649 20.7639C9.65501 20.482 9.52501 20.0576 9.48953 19.2769C9.45072 18.4329 9.44297 18.1794 9.44297 16.0411C9.44297 13.9028 9.45136 13.65 9.48953 12.8053C9.52507 12.0246 9.65603 11.601 9.7649 11.3183C9.91039 10.9445 10.0837 10.6778 10.3637 10.3973C10.6436 10.1169 10.91 9.94328 11.2844 9.79838C11.5662 9.68846 11.9905 9.55843 12.7709 9.52294C13.6147 9.48412 13.8682 9.47637 16.0049 9.47637C18.1416 9.47637 18.3953 9.48476 19.2398 9.52294C20.0202 9.55849 20.4437 9.68949 20.7263 9.79838C21.1 9.94328 21.3667 10.1173 21.647 10.3973C21.9274 10.6774 22.1003 10.9445 22.2458 11.3183C22.3557 11.6002 22.4857 12.0246 22.5212 12.8053C22.56 13.65 22.5677 13.9028 22.5677 16.0411C22.5677 18.1794 22.56 18.4322 22.5212 19.2769C22.4856 20.0576 22.355 20.4819 22.2458 20.7639C22.1003 21.1377 21.927 21.4045 21.647 21.6843C21.3671 21.9641 21.1 22.1377 20.7263 22.2832C20.4445 22.3931 20.0202 22.5232 19.2398 22.5586C18.396 22.5975 18.1425 22.6052 16.0049 22.6052C13.8672 22.6052 13.6144 22.5975 12.7709 22.5586V22.5586ZM12.7046 8.08243C11.8525 8.12125 11.2702 8.25641 10.7617 8.45434C10.235 8.65875 9.78917 8.93297 9.34365 9.37791C8.89814 9.82285 8.62469 10.2695 8.42035 10.7963C8.22247 11.3053 8.08735 11.8875 8.04854 12.7399C8.00909 13.5936 8.00006 13.8666 8.00006 16.041C8.00006 18.2155 8.00909 18.4885 8.04854 19.3422C8.08735 20.1947 8.22247 20.7768 8.42035 21.2858C8.62469 21.8123 8.8982 22.2594 9.34365 22.7042C9.7891 23.1489 10.235 23.4228 10.7617 23.6278C11.2711 23.8257 11.8525 23.9608 12.7046 23.9997C13.5586 24.0385 13.831 24.0482 16.0049 24.0482C18.1787 24.0482 18.4516 24.0391 19.3051 23.9997C20.1573 23.9608 20.7392 23.8257 21.2481 23.6278C21.7744 23.4228 22.2206 23.1491 22.6661 22.7042C23.1116 22.2592 23.3845 21.8123 23.5894 21.2858C23.7873 20.7768 23.923 20.1946 23.9612 19.3422C24 18.4878 24.009 18.2155 24.009 16.041C24.009 13.8666 24 13.5936 23.9612 12.7399C23.9224 11.8874 23.7873 11.305 23.5894 10.7963C23.3845 10.2698 23.1109 9.82356 22.6661 9.37791C22.2213 8.93227 21.7744 8.65875 21.2487 8.45434C20.7392 8.25641 20.1572 8.1206 19.3057 8.08243C18.4522 8.04361 18.1793 8.03394 16.0055 8.03394C13.8317 8.03394 13.5586 8.04297 12.7046 8.08243Z" fill="white"/>
</svg>
