<svg xmlns="http://www.w3.org/2000/svg" width="33" height="24" viewBox="0 0 33 24" fill="none">
  <rect width="33" height="24" rx="4" fill="#003D79"/>
  <path fill-rule="evenodd" clip-rule="evenodd" d="M2.38695 12.711C2.38695 12.2806 2.37951 11.9194 2.35718 11.5973H3.13191L3.16823 12.1506H3.18997C3.36556 11.8582 3.68668 11.5125 4.28567 11.5125C4.7532 11.5125 5.11838 11.7897 5.2715 12.2043H5.28654C5.41092 11.997 5.55652 11.8434 5.72437 11.7355C5.92177 11.5897 6.14828 11.5125 6.44044 11.5125C7.03191 11.5125 7.63045 11.9349 7.63045 13.1334V15.3378H6.75412V13.2719C6.75412 12.6498 6.54994 12.2806 6.11925 12.2806C5.81198 12.2806 5.58532 12.5114 5.49101 12.7804C5.46883 12.8723 5.44695 12.9876 5.44695 13.0944V15.3378H4.57031V13.1717C4.57031 12.6498 4.37343 12.2806 3.95703 12.2806C3.62103 12.2806 3.39489 12.5575 3.31435 12.8182C3.27758 12.9109 3.26284 13.0182 3.26284 13.1255V15.3378H2.38695V12.711Z" fill="white"/>
  <path fill-rule="evenodd" clip-rule="evenodd" d="M11.0448 14.4392C11.0448 14.777 11.0594 15.1067 11.096 15.3378H10.285L10.2268 14.9231H10.2046C9.9856 15.2153 9.61312 15.4224 9.15303 15.4224C8.43711 15.4224 8.0356 14.8774 8.0356 14.3087C8.0356 13.3636 8.83139 12.8877 10.1462 12.8953V12.8337C10.1462 12.5878 10.0511 12.1809 9.42309 12.1809C9.07234 12.1809 8.70701 12.2962 8.46614 12.4573L8.29062 11.8433C8.55405 11.674 9.01458 11.5125 9.5765 11.5125C10.7163 11.5125 11.0448 12.2734 11.0448 13.0872V14.4392ZM10.168 13.5099C9.53273 13.4944 8.92667 13.6403 8.92667 14.2088C8.92667 14.5771 9.15303 14.7465 9.43797 14.7465C9.79542 14.7465 10.0588 14.5006 10.1389 14.2318C10.1606 14.1627 10.168 14.0856 10.168 14.0244V13.5099Z" fill="white"/>
  <path fill-rule="evenodd" clip-rule="evenodd" d="M11.6659 12.711C11.6659 12.2806 11.6579 11.9194 11.6366 11.5973H12.4247L12.4688 12.158H12.4904C12.6439 11.8665 13.031 11.5125 13.6225 11.5125C14.2435 11.5125 14.8862 11.9349 14.8862 13.1181V15.3378H13.9879V13.2259C13.9879 12.6878 13.7981 12.2806 13.3086 12.2806C12.9508 12.2806 12.7025 12.5495 12.6073 12.8338C12.5786 12.9185 12.571 13.034 12.571 13.1408V15.3378H11.6659V12.711Z" fill="white"/>
  <path fill-rule="evenodd" clip-rule="evenodd" d="M18.781 10.0942V14.2852C18.781 14.6692 18.7954 15.0847 18.81 15.3379H18.0066L17.9706 14.7465H17.9557C17.7438 15.1615 17.3122 15.4224 16.7942 15.4224C15.9474 15.4224 15.2752 14.6621 15.2752 13.5099C15.2678 12.2578 16.0127 11.5125 16.8672 11.5125C17.3564 11.5125 17.7072 11.7279 17.8677 12.0046H17.8825V10.0942H18.781ZM17.8825 13.156C17.8825 13.08 17.8749 12.9874 17.8609 12.9108C17.7804 12.5421 17.4954 12.2424 17.0864 12.2424C16.5094 12.2424 16.188 12.7803 16.188 13.4793C16.188 14.1628 16.5094 14.6621 17.0791 14.6621C17.4441 14.6621 17.7657 14.401 17.8532 13.994C17.8749 13.9092 17.8825 13.8171 17.8825 13.7169V13.156Z" fill="white"/>
  <path fill-rule="evenodd" clip-rule="evenodd" d="M19.4157 15.3377H20.3223V11.5974H19.4157V15.3377Z" fill="white"/>
  <path fill-rule="evenodd" clip-rule="evenodd" d="M20.9572 12.803C20.9572 12.2962 20.9496 11.9347 20.9277 11.5971H21.7094L21.738 12.3112H21.7683C21.9433 11.7812 22.3597 11.5971 22.7393 11.5971C22.8268 11.5971 22.8778 11.5813 22.9511 11.5971V12.4269C22.8778 12.4116 22.7977 12.3962 22.6881 12.3962C22.2573 12.3962 21.9649 12.6878 21.8846 13.11C21.8704 13.1946 21.8557 13.2948 21.8557 13.4029V15.3378H20.9572V12.803Z" fill="white"/>
  <path fill-rule="evenodd" clip-rule="evenodd" d="M23.3674 15.3377H24.2726V11.5974H23.3674V15.3377Z" fill="white"/>
  <path fill-rule="evenodd" clip-rule="evenodd" d="M23.1533 7.0749C22.6095 7.40605 21.327 8.17965 20.8482 8.46774V8.46774C20.5564 8.62407 19.8806 8.69234 19.4984 8.1503V8.1503C19.4915 8.14051 18.99 7.48143 18.9695 7.45662V7.45662C18.9551 7.43908 18.6309 6.93329 17.9084 6.91747V6.91747C17.8017 6.91481 17.2709 6.91184 16.7531 7.22137V7.22137C16.0648 7.63495 14.464 8.59746 14.464 8.59746V8.59746C14.4635 8.59746 14.4635 8.59832 14.4627 8.59832V8.59832C13.8047 8.99428 13.292 9.30256 13.292 9.30256V9.30256L13.8977 10.085C14.1811 10.4551 14.8201 10.7413 15.3743 10.4068V10.4068C15.3743 10.4068 17.422 9.15969 17.4295 9.15609V9.15609C18.3151 8.64529 18.9984 8.64529 19.4519 8.83536V8.83536C19.859 9.01628 20.2132 9.46704 20.2132 9.46704V9.46704C20.2132 9.46704 20.676 10.0703 20.7577 10.1758V10.1758C21.021 10.5168 21.4569 10.3828 21.4569 10.3828V10.3828C21.4569 10.3828 21.6185 10.3635 21.8619 10.2115V10.2115C21.8619 10.2115 23.8454 9.00203 23.8466 9.00164V9.00164C24.4764 8.61303 25.0541 8.54046 25.3493 8.56904V8.56904C26.2739 8.65742 26.5612 9.33677 26.9621 9.81071V9.81071C27.1982 10.0895 27.4112 10.2478 27.737 10.2398V10.2398C27.9511 10.235 28.1929 10.0985 28.2286 10.0738V10.0738L30.6037 8.63229C30.6037 8.63229 30.36 8.24627 29.8609 7.64567V7.64567C29.4142 7.10982 28.9398 7.35227 28.5615 7.54931V7.54931C28.4026 7.63197 27.8267 8.03483 27.2562 8.31587V8.31587C26.8498 8.51604 26.2659 8.45584 25.9459 8.03999V8.03999C25.9267 8.01471 25.409 7.35555 25.3546 7.27445V7.27445C25.1457 6.9992 24.738 6.75269 24.2155 6.75269V6.75269C23.8978 6.75269 23.5373 6.84381 23.1533 7.0749" fill="url(#paint0_linear_3443_224)"/>
  <defs>
    <linearGradient id="paint0_linear_3443_224" x1="13.292" y1="10.5549" x2="30.6037" y2="10.5549" gradientUnits="userSpaceOnUse">
      <stop stop-color="#FFCA06"/>
      <stop offset="0.330844" stop-color="#FBAA18"/>
      <stop offset="0.694742" stop-color="#FFC907"/>
      <stop offset="1" stop-color="#FAA619"/>
    </linearGradient>
  </defs>
</svg>