<svg xmlns="http://www.w3.org/2000/svg" width="33" height="24" viewBox="0 0 33 24" fill="none">
  <rect width="33" height="24" rx="4" fill="#262626"/>
  <g opacity="0.01">
    <rect x="7.07143" y="5.76001" width="18.77" height="12.4657" fill="white"/>
  </g>
  <rect x="13.9814" y="7.93188" width="4.95143" height="8.12061" fill="#FF5F00"/>
  <path fill-rule="evenodd" clip-rule="evenodd" d="M14.4914 11.9928C14.4902 10.4085 15.2145 8.91149 16.4557 7.93326C14.3471 6.26927 11.3191 6.51164 9.49963 8.49005C7.68018 10.4685 7.68018 13.5187 9.49963 15.4971C11.3191 17.4755 14.3471 17.7179 16.4557 16.0539C15.2141 15.0753 14.4897 13.5777 14.4914 11.9928Z" fill="#EB001B"/>
  <path fill-rule="evenodd" clip-rule="evenodd" d="M24.2956 15.0622V15.3997H24.261V15.0622H24.1871V14.9924H24.3741V15.0622H24.2956ZM24.6586 14.9924V15.3997H24.6193V15.0913L24.558 15.3561H24.5156L24.4543 15.0913V15.3997H24.4134V14.9924H24.47L24.536 15.2833L24.602 14.9924H24.6586Z" fill="#F79E1B"/>
  <path fill-rule="evenodd" clip-rule="evenodd" d="M24.7771 11.9929C24.7771 13.9701 23.6528 15.7737 21.8817 16.6377C20.1106 17.5018 18.0037 17.2745 16.4557 16.0525C17.6964 15.0734 18.4208 13.5766 18.4208 11.9922C18.4208 10.4077 17.6964 8.91093 16.4557 7.93187C18.0037 6.70985 20.1106 6.48259 21.8817 7.34661C23.6528 8.21064 24.7771 10.0143 24.7771 11.9915V11.9929Z" fill="#F79E1B"/>
</svg>