<svg xmlns="http://www.w3.org/2000/svg" width="33" height="24" viewBox="0 0 33 24" fill="none">
  <rect width="33" height="24" rx="4" fill="#FFCE4C"/>
  <path fill-rule="evenodd" clip-rule="evenodd" d="M11.2371 13.7919L12.0621 11.4944L12.3319 13.7919H13.2035L12.7315 10.4175H11.6678L10.9634 12.4446L10.2591 10.4175H9.19541L8.72319 13.7919H9.59497L9.86461 11.4944L10.6898 13.7919H11.2371Z" fill="#231F20"/>
  <path fill-rule="evenodd" clip-rule="evenodd" d="M18.0055 11.2825L17.4144 13.0374L16.8148 11.2825H15.8189L16.9396 13.7919L16.4957 14.7763H17.461L19.0018 11.2825H18.0055Z" fill="#231F20"/>
  <path fill-rule="evenodd" clip-rule="evenodd" d="M27.7812 10.1392V13.7889H28.6841V12.5181L29.6101 13.7889H30.6374L29.6181 12.4472L30.5464 11.2824H29.509L28.6841 12.3783V10.1392H27.7812Z" fill="#231F20"/>
  <path fill-rule="evenodd" clip-rule="evenodd" d="M20.0655 13.21V11.89C20.2484 11.8271 20.911 11.6582 20.911 12.5158C20.911 13.3899 20.2313 13.2558 20.0655 13.21ZM19.147 13.6627C19.147 13.6627 19.6245 13.8448 20.2938 13.8448C20.963 13.8448 21.8346 13.6328 21.8346 12.4579C21.8346 11.2826 20.6778 11.2402 20.5428 11.2402C20.2881 11.2402 20.1253 11.3109 20.0655 11.3422V10.1338H19.147V13.6627Z" fill="#231F20"/>
  <path fill-rule="evenodd" clip-rule="evenodd" d="M22.7896 13.0187C22.7896 12.6581 23.4613 12.6324 23.6459 12.6322V13.2745C23.4537 13.298 22.7896 13.3538 22.7896 13.0187ZM22.3277 11.9178C23.6456 11.5207 23.6459 11.9975 23.6459 12.0607V12.1459C22.5792 12.1551 21.9437 12.4659 21.9437 13.0294C21.9437 13.6011 22.5354 13.8499 23.3189 13.8499C24.1024 13.8499 24.5018 13.6645 24.5018 13.6645V12.1031C24.5018 11.5525 24.1542 11.2031 23.3189 11.2031C22.4834 11.2031 22.1204 11.4044 22.1204 11.4044L22.3277 11.9178Z" fill="#231F20"/>
  <path fill-rule="evenodd" clip-rule="evenodd" d="M14.1662 13.0187C14.1662 12.6581 14.8379 12.6324 15.0222 12.6322V13.2745C14.8301 13.298 14.1662 13.3538 14.1662 13.0187ZM13.7043 11.9178C15.0222 11.5207 15.0222 11.9975 15.0222 12.0607V12.1459C13.9558 12.1551 13.3203 12.4659 13.3203 13.0294C13.3203 13.6011 13.9119 13.8499 14.6953 13.8499C15.4788 13.8499 15.8784 13.6645 15.8784 13.6645V12.1031C15.8784 11.5525 15.5308 11.2031 14.6953 11.2031C13.8599 11.2031 13.4968 11.4044 13.4968 11.4044L13.7043 11.9178Z" fill="#231F20"/>
  <path fill-rule="evenodd" clip-rule="evenodd" d="M26.5306 13.7865H27.4386V12.1984C27.4386 11.3726 26.8576 11.1978 26.1413 11.1978C25.4256 11.1978 24.8495 11.3989 24.8495 11.3989V13.7865H25.7577V11.8877C26.4559 11.6795 26.5306 12.0217 26.5306 12.1877V13.7865Z" fill="#231F20"/>
  <path fill-rule="evenodd" clip-rule="evenodd" d="M3.92621 11.1199C3.92621 11.1199 3.98465 10.8856 4.07797 10.8063C4.17147 10.7268 4.50734 10.5004 4.99243 10.3416C5.05019 10.3226 5.11726 10.3444 5.12031 10.3454C5.11709 10.3649 5.11523 10.3782 5.11438 10.3826C5.10795 10.4197 5.08068 10.4434 5.08068 10.4434C5.17925 10.4567 5.24412 10.3853 5.26225 10.3031C5.28054 10.2213 5.3427 9.89613 5.44399 9.90097C5.72668 9.9141 5.92908 10.846 5.90842 10.8882C5.8947 10.9158 5.78376 10.8934 5.78376 10.8934C5.96008 11.1766 6.19093 11.1738 6.24293 11.1291C6.29476 11.0843 6.26631 10.9385 6.26631 10.9385C6.82152 11.2747 6.79035 11.6744 6.79035 11.6744C6.95634 11.0128 6.57254 10.7294 6.57254 10.7294C6.72294 10.724 6.88639 10.822 6.88639 10.822C6.65282 10.5018 6.17027 10.3243 6.17027 10.3243C6.17027 10.3243 5.60744 9.68652 5.42586 9.71037C5.27529 9.73024 5.18925 10.0119 5.14707 10.2044C5.12641 10.2027 5.08694 10.2011 5.03562 10.2073C4.99582 10.1569 4.82729 9.95281 4.76174 10.02C4.73617 10.0459 4.72804 10.2298 4.72584 10.307C4.45314 10.4176 3.98922 10.6255 3.89488 10.7781C3.80951 10.9172 3.78987 11.0205 3.78987 11.0205C3.78987 11.0205 3.23364 11.3857 3.09729 11.7831C3.09729 11.7831 3.47093 11.3381 3.92621 11.1199Z" fill="#231F20"/>
  <mask id="mask0_3443_81" style="mask-type:luminance" maskUnits="userSpaceOnUse" x="2" y="9" width="6" height="6">
    <path fill-rule="evenodd" clip-rule="evenodd" d="M2.35714 9.29272H7.86908V14.9163H2.35714V9.29272Z" fill="white"/>
  </mask>
  <g mask="url(#mask0_3443_81)">
    <path fill-rule="evenodd" clip-rule="evenodd" d="M5.113 9.29272C3.59353 9.29272 2.35709 10.5543 2.35709 12.1044C2.35709 13.6547 3.59353 14.9163 5.113 14.9163C6.6328 14.9163 7.86907 13.6547 7.86907 12.1044C7.86907 10.5543 6.6328 9.29272 5.113 9.29272ZM5.113 9.52756C6.5078 9.52756 7.63872 10.681 7.63872 12.1044C7.63872 13.5275 6.5078 14.6811 5.113 14.6811C3.71836 14.6811 2.58761 13.5275 2.58761 12.1044C2.58761 10.681 3.71836 9.52756 5.113 9.52756Z" fill="#231F20"/>
  </g>
  <path fill-rule="evenodd" clip-rule="evenodd" d="M5.71631 10.825C5.70835 10.5309 5.56591 10.2956 5.49308 10.2819C5.42058 10.269 5.39721 10.5493 5.39721 10.5493C5.58928 10.6789 5.71631 10.825 5.71631 10.825Z" fill="#231F20"/>
  <path fill-rule="evenodd" clip-rule="evenodd" d="M4.34898 10.772C4.23736 10.8404 4.28682 10.8988 4.28682 10.8988C4.28682 10.8988 4.2687 10.8404 4.40623 10.8009C4.65148 10.7302 4.8732 10.6578 4.86778 10.5971C4.8627 10.5363 4.69671 10.5125 4.69671 10.5125C4.74346 10.5759 4.4606 10.703 4.34898 10.772Z" fill="#231F20"/>
  <path fill-rule="evenodd" clip-rule="evenodd" d="M4.46444 11.1607C4.49815 11.1607 4.52542 11.1331 4.52542 11.0987C4.52542 11.0798 4.51712 11.0636 4.50408 11.0522C4.54456 11.0494 4.63704 11.0546 4.63704 11.0546C4.6267 11.0522 4.60333 11.0786 4.55133 11.1448C4.4995 11.2112 4.45039 11.1607 4.45039 11.1607L4.44954 11.1578C4.45428 11.1588 4.45919 11.1607 4.46444 11.1607ZM4.26865 11.4439C4.26865 11.4439 4.3386 11.2774 4.3906 11.2563C4.3906 11.2563 4.48138 11.2799 4.53067 11.2613C4.57996 11.243 4.67328 11.116 4.7097 11.1132C4.7097 11.1132 4.61366 11.539 4.22444 11.5312C4.22444 11.5312 4.50475 11.6928 4.64737 11.5789C4.79015 11.465 4.68107 11.3778 4.86536 11.1951C5.04947 11.0123 4.92769 11.0047 4.91989 11.0074C4.9121 11.0099 4.85485 10.9914 4.85485 10.9914C4.85485 10.9914 4.88077 10.957 4.93294 10.9335C4.98476 10.9093 5.28304 10.7719 5.28829 10.6893C5.29337 10.6076 5.07284 10.515 4.96139 10.5174C4.96139 10.5174 5.06234 10.5597 5.05726 10.6181C5.05218 10.6764 4.7617 10.8061 4.7617 10.9729C4.7617 10.9729 4.65787 10.9807 4.5825 10.9651C4.5073 10.9489 4.42684 10.957 4.34385 11.0123C4.26085 11.0681 4.25577 10.9439 4.26339 10.9278C4.26339 10.9278 4.10266 11.0309 4.30506 11.1633C4.30506 11.1633 4.2219 11.2507 4.21411 11.272C4.20631 11.2931 4.17261 11.4068 4.26865 11.4439Z" fill="#231F20"/>
  <path fill-rule="evenodd" clip-rule="evenodd" d="M4.0118 11.9892C4.0118 11.9892 4.0079 11.8383 3.87156 11.8701C3.64256 11.9233 3.56414 12.3384 3.56414 12.3384C3.82125 11.8542 4.0118 11.9892 4.0118 11.9892Z" fill="#231F20"/>
  <path fill-rule="evenodd" clip-rule="evenodd" d="M4.09749 12.3583C4.22181 12.1522 4.07022 12.021 3.87561 12.132C3.68116 12.2433 3.63425 12.5094 3.63425 12.5094C4.01958 12.0807 4.09749 12.3583 4.09749 12.3583Z" fill="#231F20"/>
  <path fill-rule="evenodd" clip-rule="evenodd" d="M5.93432 12.0924C5.93432 12.0924 5.79407 11.9657 5.80966 11.731C5.82524 11.4967 5.86809 11.1439 5.47904 10.8975C5.47904 10.8975 5.63842 11.1477 5.57998 11.3937C5.52155 11.64 5.32677 12.0601 5.34269 12.1997C5.37775 12.5054 5.68906 12.561 5.66569 12.9778C5.66569 12.9778 5.84861 12.7513 5.81372 12.4855C5.77866 12.2194 5.54899 12.1041 5.6501 11.894C5.6501 11.894 5.7668 12.0685 5.93432 12.0924Z" fill="#231F20"/>
  <path fill-rule="evenodd" clip-rule="evenodd" d="M4.16555 13.3152C4.13032 13.3036 4.09932 13.1724 4.09932 13.1724C4.14996 13.2143 4.25311 13.2162 4.25311 13.2162C4.20433 13.2635 4.20061 13.3271 4.16555 13.3152ZM4.55409 12.8972C4.55409 12.8972 4.67587 12.9024 4.68112 12.8813C4.68638 12.86 4.64217 12.7143 4.64217 12.7143C4.64217 12.7143 4.79528 12.7302 4.79799 12.7807C4.80053 12.8306 4.71229 12.9582 4.52547 13.0401C4.52547 13.0401 4.55934 12.9393 4.55409 12.8972ZM3.76243 12.7622C3.7792 12.7524 3.79495 12.7418 3.80935 12.7302C3.84729 12.701 3.87574 12.687 3.89488 12.6807C3.89099 12.7365 3.88777 12.8346 3.90488 12.9162C3.90488 12.9162 3.8041 12.8503 3.76243 12.7622ZM3.27497 12.2538C3.21535 12.2538 3.10898 12.0924 3.09086 12.0606C3.07273 12.029 3.19181 11.9706 3.22839 11.9601C3.26464 11.9494 3.30292 11.9583 3.30867 11.9763C3.31393 11.9917 3.23364 12.0422 3.22314 12.0606C3.21281 12.0793 3.28683 12.1489 3.29834 12.1636C3.31901 12.1906 3.33476 12.2538 3.27497 12.2538ZM7.05458 10.9846C7.05458 10.9846 7.39486 11.9285 7.01089 12.7859C7.01089 12.7859 7.03273 12.6613 6.93822 12.4156C6.83694 12.1522 6.87081 11.812 6.91231 11.7486C6.91231 11.7486 6.72532 11.939 6.73582 12.2568C6.74632 12.574 6.82915 13.4688 6.19636 13.8023C6.19636 13.8023 6.43619 13.3549 6.34659 12.8306C6.34659 12.8306 6.4284 12.8628 6.47125 12.9739C6.47125 12.9739 6.64249 12.5134 6.42061 11.9494C6.42061 11.9494 6.5451 11.9734 6.62302 12.0408C6.62302 12.0408 6.70482 11.6373 6.25716 11.3539C6.14436 11.2824 6.15977 11.243 6.15977 11.243C6.15977 11.243 6.12488 11.3342 6.19873 11.4254C6.27258 11.5168 6.37403 11.6955 6.35845 11.7869C6.35845 11.7869 6.23769 11.6993 6.06255 11.7233C6.06255 11.7233 6.39724 12.013 6.34659 12.6364C6.34659 12.6364 6.26123 12.5412 6.04324 12.5015C6.04324 12.5015 6.28833 12.9701 6.07034 13.4185C6.07034 13.4185 6.05476 13.2597 5.98481 13.1603C5.98481 13.1603 5.93027 13.49 5.54121 13.6053C5.54121 13.6053 5.85625 13.2041 5.48278 13.0019C5.10914 12.799 4.79393 13.2478 4.73177 13.6411C4.73177 13.6411 4.29986 13.6725 4.25701 13.494C4.21416 13.3152 4.33865 13.2397 4.33865 13.2397C4.33865 13.2397 4.40487 13.2834 4.5568 13.212C4.70839 13.1406 5.0275 12.9459 4.99633 12.6998C4.96517 12.4539 4.5878 12.2117 4.288 12.3107C3.98855 12.4102 3.81714 12.6801 3.66148 12.6762C3.50583 12.6722 3.31511 12.4299 3.34255 12.3031C3.36965 12.1759 3.47077 12.1401 3.50583 11.9257C3.50583 11.9257 3.45146 11.931 3.41521 11.9072C3.3788 11.8832 3.28276 11.8436 3.23093 11.8571C3.17893 11.8702 3.0519 11.9577 3.04665 11.9416C3.0414 11.9257 3.05969 11.8301 3.05969 11.8301C3.05969 11.8301 2.91962 11.981 2.94045 12.0422C2.96112 12.103 3.08307 12.2538 3.2101 12.3387C3.2101 12.3387 3.23364 12.5237 3.39963 12.696C3.49871 12.7988 3.59119 12.8175 3.67012 12.8002C3.70349 12.8505 3.81714 13.0022 3.9982 13.0354C3.9982 13.0354 3.96687 12.8227 3.98956 12.662C3.99651 12.6582 4.00345 12.654 4.00921 12.6482C4.03767 12.6193 4.36981 12.3069 4.61625 12.6086C4.61625 12.6086 4.50464 12.6509 4.4606 12.7937C4.41656 12.9369 4.39065 13.2915 4.02479 13.0639C4.02479 13.0639 3.99363 13.2677 4.10525 13.3896C4.10525 13.3896 4.08967 13.6065 4.33086 13.7254C4.57222 13.8446 4.74091 13.7548 4.89657 13.8341C4.89657 13.8341 4.88099 13.5084 5.0131 13.31C5.14555 13.1114 5.33237 13.0453 5.42316 13.1223C5.51377 13.1989 5.57102 13.49 5.22076 13.7919C5.22076 13.7919 5.62285 13.8446 5.89792 13.6304C5.89792 13.6304 5.8637 14.0084 5.5861 14.3288C6.59202 14.1087 7.34286 13.1963 7.34286 12.1042C7.34286 11.6972 7.23802 11.3152 7.05458 10.9846Z" fill="#231F20"/>
  <path fill-rule="evenodd" clip-rule="evenodd" d="M5.43876 11.0734C5.43876 11.0734 5.17673 10.9229 5.06004 11.0787C4.95011 11.2258 5.02159 11.4776 4.95705 11.635C4.95519 11.6333 4.95282 11.6312 4.95096 11.6295C4.80563 11.4968 4.62677 11.7221 4.5929 11.7881C4.55936 11.8544 4.51515 11.862 4.51515 11.862C4.19605 11.9284 4.26346 11.6664 4.15709 11.5871C4.0509 11.5075 3.8717 11.6243 3.8717 11.6243C4.05073 11.5894 4.09222 11.7167 4.08714 11.7668C4.08189 11.8173 4.11814 11.9657 4.16743 12.0476C4.21671 12.1295 4.41658 12.0713 4.58002 12.085C4.74347 12.0979 4.8368 12.3015 4.8368 12.3015C4.93537 12.058 4.67081 11.9471 4.67081 11.9471C4.67081 11.9471 4.74805 11.7974 4.83934 11.8489C5.12999 12.0129 5.05733 12.6773 5.05733 12.6773C5.30766 12.1973 5.1974 11.9154 5.06681 11.7508C5.08324 11.6011 5.1576 11.129 5.43876 11.0734Z" fill="#231F20"/>
</svg>