<svg xmlns="http://www.w3.org/2000/svg" width="33" height="24" viewBox="0 0 33 24" fill="none">
  <rect width="33" height="24" rx="4" fill="white"/>
  <path fill-rule="evenodd" clip-rule="evenodd" d="M18.5304 15.4727L17.8043 16.9282L17.0783 15.4727H16.2978V18.772H17.0922V17.1225C17.0922 17.1225 17.4822 17.8182 17.5406 17.9221C17.5991 18.0259 17.6988 18.0798 17.8043 18.0798C17.9099 18.0798 18.0097 18.0259 18.0682 17.9221C18.1266 17.8182 18.5166 17.1225 18.5166 17.1225V18.772H19.311V15.4727H18.5304Z" fill="#595A59"/>
  <path fill-rule="evenodd" clip-rule="evenodd" d="M19.9775 18.7718V15.4724H22.175V16.1955H20.7718V16.7464H21.9705V17.4701H20.7718V18.0497H22.175V18.7718H19.9775Z" fill="#595A59"/>
  <path fill-rule="evenodd" clip-rule="evenodd" d="M24.7985 18.4572C24.5215 18.7489 24.2127 18.8273 23.8589 18.8273C23.4821 18.8273 23.1959 18.6986 22.9601 18.4572C22.6194 18.1095 22.633 17.6083 22.633 17.1131C22.633 16.6173 22.6194 16.1205 22.9601 15.7724C23.1959 15.5316 23.4691 15.4023 23.8589 15.4023C24.6892 15.4023 25.0436 15.9532 25.1204 16.4957H24.3221C24.258 16.2452 24.1308 16.1244 23.8589 16.1244C23.7136 16.1244 23.6044 16.19 23.5456 16.2687C23.4727 16.3659 23.4277 16.5106 23.4277 17.1131C23.4277 17.7152 23.4727 17.8688 23.5456 17.966C23.6044 18.0458 23.7136 18.1051 23.8589 18.1051C24.0268 18.1051 24.14 18.0544 24.2127 17.9752C24.3036 17.8826 24.3357 17.7177 24.3357 17.5928V17.5463H23.8589V16.8688H25.1253V17.3278C25.1253 17.8617 25.0436 18.2028 24.7985 18.4572" fill="#595A59"/>
  <path fill-rule="evenodd" clip-rule="evenodd" d="M26.4759 17.6203L26.7731 16.6648L27.0703 17.6203H26.4759ZM27.0794 15.4724H26.4668L25.2912 18.7718H26.1081L26.2669 18.2804H27.2793L27.4381 18.7718H28.255L27.0794 15.4724Z" fill="#595A59"/>
  <path fill-rule="evenodd" clip-rule="evenodd" d="M5.97854 17.2469H5.09773V18.4567H5.97854C6.37808 18.4567 6.62781 18.2202 6.62781 17.8494C6.62781 17.4787 6.37808 17.2469 5.97854 17.2469M5.94225 15.7869H5.09773V16.9318H5.94225C6.30093 16.9318 6.57787 16.751 6.57787 16.357C6.57787 15.963 6.30093 15.7869 5.94225 15.7869M6.01033 18.7718H4.75262V15.4717H5.96947C6.53247 15.4717 6.92294 15.8007 6.92294 16.3524C6.92294 16.7 6.71861 16.9734 6.4462 17.0754C6.75498 17.1913 6.97292 17.4647 6.97292 17.8587C6.97292 18.4567 6.58241 18.7718 6.01033 18.7718" fill="#595A59"/>
  <path fill-rule="evenodd" clip-rule="evenodd" d="M8.53009 15.9771L7.92169 17.7199H9.12942L8.53009 15.9771ZM9.48809 18.7721L9.22929 18.0259H7.81724L7.55844 18.7721H7.19069L8.38024 15.4719H8.67083L9.85584 18.7721H9.48809Z" fill="#595A59"/>
  <path fill-rule="evenodd" clip-rule="evenodd" d="M12.2576 18.772L10.5413 16.1254V18.772H10.1963V15.4719H10.5231L12.2394 18.1092V15.4719H12.5845V18.772H12.2576Z" fill="#595A59"/>
  <path fill-rule="evenodd" clip-rule="evenodd" d="M15.3494 18.772L14.3641 17.0154L13.683 17.8496V18.772H13.338V15.4719H13.683V17.3676L15.1904 15.4719H15.6127L14.5957 16.7466L15.758 18.772H15.3494Z" fill="#595A59"/>
  <path fill-rule="evenodd" clip-rule="evenodd" d="M17.6935 4.81152L16.5038 7.53865L18.3877 11.8573L21.4609 4.81152H17.6935Z" fill="#949594"/>
  <path fill-rule="evenodd" clip-rule="evenodd" d="M21.4609 4.81152H17.6935L21.3468 13.1874H25.1148L21.4609 4.81152Z" fill="#595A59"/>
  <path fill-rule="evenodd" clip-rule="evenodd" d="M15.3153 4.81152H11.5479L14.621 11.8573L16.505 7.53865L15.3153 4.81152Z" fill="#EC952D"/>
  <path fill-rule="evenodd" clip-rule="evenodd" d="M11.5479 4.81152L7.89401 13.1874H11.6621L15.3153 4.81152H11.5479Z" fill="#F9C623"/>
  <path fill-rule="evenodd" clip-rule="evenodd" d="M16.5044 7.53857L14.621 11.8573C14.9495 12.5833 15.6697 13.0849 16.5044 13.0849C17.3391 13.0849 18.0593 12.5833 18.3877 11.8573L16.5044 7.53857Z" fill="#E3672A"/>
</svg>