<svg xmlns="http://www.w3.org/2000/svg" width="16" height="16" viewBox="0 0 16 16" fill="none">
  <path fill-rule="evenodd" clip-rule="evenodd" d="M6.7597 1.33325C3.76281 1.33325 1.33334 3.76271 1.33334 6.75961C1.33334 9.7565 3.76281 12.186 6.7597 12.186C8.09069 12.186 9.30976 11.7068 10.2538 10.9115L13.8727 14.5304C14.0543 14.712 14.3488 14.712 14.5304 14.5304C14.7121 14.3487 14.7121 14.0542 14.5304 13.8726L10.9116 10.2537C11.7069 9.30967 12.1861 8.0906 12.1861 6.75961C12.1861 3.76271 9.75659 1.33325 6.7597 1.33325ZM2.26358 6.75961C2.26358 4.27647 4.27656 2.26348 6.7597 2.26348C9.24284 2.26348 11.2558 4.27647 11.2558 6.75961C11.2558 9.24275 9.24284 11.2557 6.7597 11.2557C4.27656 11.2557 2.26358 9.24275 2.26358 6.75961Z" fill="#999999"/>
</svg>