<svg xmlns="http://www.w3.org/2000/svg" width="32" height="32" viewBox="0 0 32 32" fill="none">
  <path d="M8.00001 26.6666C6.8889 26.6666 5.94446 26.2778 5.16668 25.5C4.3889 24.7222 4.00001 23.7778 4.00001 22.6666C3.26668 22.6666 2.63868 22.4053 2.11601 21.8827C1.59335 21.36 1.33246 20.7324 1.33335 20V7.99998C1.33335 7.26665 1.59468 6.63865 2.11735 6.11598C2.64001 5.59332 3.26757 5.33243 4.00001 5.33332H20C20.7333 5.33332 21.3613 5.59465 21.884 6.11731C22.4067 6.63998 22.6676 7.26754 22.6667 7.99998V10.6666H26C26.2222 10.6666 26.4222 10.7111 26.6 10.8C26.7778 10.8889 26.9333 11.0222 27.0667 11.2L30.4 15.6333C30.4889 15.7444 30.5556 15.8666 30.6 16C30.6445 16.1333 30.6667 16.2778 30.6667 16.4333V21.3333C30.6667 21.7111 30.5387 22.028 30.2827 22.284C30.0267 22.54 29.7102 22.6675 29.3333 22.6666H28C28 23.7778 27.6111 24.7222 26.8333 25.5C26.0556 26.2778 25.1111 26.6666 24 26.6666C22.8889 26.6666 21.9445 26.2778 21.1667 25.5C20.3889 24.7222 20 23.7778 20 22.6666H12C12 23.7778 11.6111 24.7222 10.8333 25.5C10.0556 26.2778 9.11112 26.6666 8.00001 26.6666ZM8.00001 24C8.37779 24 8.69468 23.872 8.95068 23.616C9.20668 23.36 9.33423 23.0435 9.33335 22.6666C9.33335 22.2889 9.20535 21.972 8.94935 21.716C8.69335 21.46 8.3769 21.3324 8.00001 21.3333C7.62223 21.3333 7.30535 21.4613 7.04935 21.7173C6.79335 21.9733 6.66579 22.2898 6.66668 22.6666C6.66668 23.0444 6.79468 23.3613 7.05068 23.6173C7.30668 23.8733 7.62312 24.0009 8.00001 24ZM24 24C24.3778 24 24.6947 23.872 24.9507 23.616C25.2067 23.36 25.3342 23.0435 25.3333 22.6666C25.3333 22.2889 25.2053 21.972 24.9493 21.716C24.6933 21.46 24.3769 21.3324 24 21.3333C23.6222 21.3333 23.3053 21.4613 23.0493 21.7173C22.7933 21.9733 22.6658 22.2898 22.6667 22.6666C22.6667 23.0444 22.7947 23.3613 23.0507 23.6173C23.3067 23.8733 23.6231 24.0009 24 24ZM22.6667 17.3333H28.3333L25.3333 13.3333H22.6667V17.3333Z" fill="#658C4A"/>
</svg>