<svg xmlns="http://www.w3.org/2000/svg" width="33" height="24" viewBox="0 0 33 24" fill="none">
  <rect width="33" height="24" rx="4" fill="#F0592C"/>
  <path fill-rule="evenodd" clip-rule="evenodd" d="M14.5371 6.58222C14.6666 6.58216 14.7961 6.5821 14.9256 6.5821C14.9583 5.91345 15.1152 5.19876 15.5819 4.6996C16.0355 4.21317 16.8746 4.18721 17.3446 4.66286C17.845 5.15761 18.0345 5.89288 18.0696 6.5821C18.2984 6.58309 18.5271 6.58256 18.756 6.58203C19.0932 6.58124 19.4304 6.58046 19.7675 6.58455C19.9214 6.57622 20.073 6.69035 20.0927 6.84858C20.1083 6.9962 20.096 7.14429 20.0837 7.29221C20.0781 7.35878 20.0726 7.42531 20.0696 7.49175C19.9719 8.82608 19.8765 10.1609 19.7812 11.4952L19.7771 11.5526C19.753 11.8529 19.6457 12.1674 19.4066 12.3594C19.2508 12.4863 19.0482 12.5328 18.8519 12.5274C18.0112 12.5264 17.1705 12.5266 16.3298 12.5268C15.5825 12.527 14.8352 12.5271 14.088 12.5264C13.8157 12.5358 13.54 12.4006 13.3986 12.1595C13.2408 11.9118 13.2244 11.6159 13.2085 11.328C13.2053 11.271 13.2022 11.2142 13.198 11.1583C13.1577 10.6036 13.1181 10.0488 13.0784 9.49414C13.0213 8.69595 12.9642 7.89782 12.9055 7.09987C12.905 7.0899 12.9044 7.07982 12.9039 7.06964C12.8969 6.94079 12.8891 6.79751 12.9805 6.69672C13.0709 6.58499 13.2222 6.58304 13.3537 6.58135C13.3594 6.58127 13.3651 6.5812 13.3707 6.58112C13.7597 6.58259 14.1484 6.5824 14.5371 6.58222ZM16.6889 4.75838C16.3309 4.66482 15.9499 4.85684 15.7473 5.15859C15.463 5.57202 15.3764 6.08735 15.3403 6.58063C16.112 6.58308 16.8837 6.58308 17.6549 6.58063C17.6126 6.13437 17.5303 5.68028 17.3129 5.28546C17.1777 5.04102 16.9641 4.82353 16.6889 4.75838ZM16.2597 7.60932C15.8652 7.67741 15.5198 8.00561 15.4587 8.41316C15.4173 8.68601 15.5395 8.96327 15.7416 9.14059C15.9773 9.36216 16.2859 9.46142 16.5863 9.55805C16.6206 9.56909 16.6549 9.5801 16.6889 9.59126C16.9727 9.69462 17.2729 9.83814 17.4336 10.112C17.563 10.3314 17.5327 10.6312 17.3634 10.8198C17.1806 11.026 16.901 11.1142 16.6359 11.1328C16.2371 11.147 15.8508 10.9947 15.5256 10.7674C15.4526 10.7011 15.392 10.7697 15.3409 10.8275L15.3409 10.8275C15.329 10.841 15.3176 10.8539 15.3067 10.8644C15.5337 11.1318 15.872 11.269 16.203 11.3464C16.6186 11.437 17.0882 11.3988 17.4389 11.1367C17.7718 10.8889 17.8647 10.3985 17.7117 10.0209C17.5871 9.7338 17.3119 9.55305 17.0377 9.43499C16.9193 9.38187 16.793 9.33957 16.6662 9.29708L16.6662 9.29708C16.3521 9.19187 16.0346 9.08553 15.8262 8.81092C15.6203 8.54542 15.7579 8.15256 16.0153 7.98013C16.3237 7.76068 16.7312 7.80771 17.0646 7.93752C17.1203 7.95569 17.173 7.98266 17.2256 8.00959C17.302 8.04872 17.3782 8.08776 17.4634 8.09966C17.563 8.06096 17.5751 7.91596 17.4808 7.86453C17.1305 7.61911 16.6759 7.53486 16.2597 7.60932Z" fill="white"/>
  <path fill-rule="evenodd" clip-rule="evenodd" d="M3.82618 15.8584C4.06713 16.0926 4.37494 16.2049 4.68245 16.317C4.99219 16.4299 5.30162 16.5428 5.54212 16.78C5.76077 16.9679 5.78526 17.3108 5.66106 17.5601C5.50014 17.8388 5.16167 17.9448 4.86169 17.9573C4.3658 17.9591 3.9355 17.6759 3.54106 17.4025C3.53019 17.4117 3.51856 17.4213 3.5065 17.4313C3.37888 17.5367 3.20305 17.6819 3.36527 17.8397C4.01072 18.4426 5.12057 18.6928 5.84385 18.0935C6.36073 17.6705 6.33887 16.8148 5.83948 16.3873C5.59897 16.1318 5.28192 16.0199 4.96461 15.9079C4.70036 15.8147 4.43592 15.7213 4.21537 15.5449C3.85067 15.2885 4.01946 14.6411 4.43489 14.5458C4.85732 14.4015 5.29199 14.5601 5.67156 14.7506C5.92606 14.8958 6.08961 14.4372 5.86047 14.3187C5.36633 13.9848 4.6859 13.8815 4.13841 14.1371C3.51395 14.4096 3.3023 15.3864 3.82618 15.8584ZM6.58288 17.9056L6.58335 17.9509C6.58459 18.0823 6.58586 18.2153 6.61174 18.3446C6.70795 18.4693 6.94671 18.4844 7.0263 18.3348C7.09259 18.0951 7.07901 17.8347 7.06546 17.5749C7.04468 17.1766 7.02399 16.7798 7.2913 16.4612C7.58866 16.0596 8.35305 16.0917 8.51572 16.6019C8.56951 16.9029 8.56143 17.2088 8.55336 17.5148C8.54607 17.791 8.53877 18.0673 8.57694 18.3402C8.70638 18.5254 9.07108 18.4408 9.02998 18.1906C9.03435 17.7097 9.03785 17.2289 9.03435 16.748C9.03872 16.1683 8.48773 15.6749 7.92887 15.6963C7.6114 15.6652 7.32628 15.8219 7.06215 15.9786C7.06188 15.7963 7.06388 15.6137 7.06589 15.4312C7.07022 15.0377 7.07455 14.644 7.05603 14.2511C7.06215 14.1023 6.94671 13.9661 6.79191 14.0053C6.60649 13.9884 6.58463 14.2083 6.5855 14.3472C6.58399 14.8612 6.58461 15.3752 6.58523 15.8892C6.58604 16.5613 6.58684 17.2335 6.58288 17.9056ZM21.7599 18.5352L21.7601 18.5352C21.858 18.5341 21.9561 18.533 22.0544 18.5316C22.1001 18.2328 22.1518 17.9354 22.2035 17.638L22.2036 17.638L22.2036 17.6377L22.2037 17.6374L22.2037 17.6371C22.2339 17.4634 22.2641 17.2897 22.2931 17.1158C22.3689 17.1145 22.4448 17.1142 22.5208 17.114C22.7637 17.1131 23.007 17.1123 23.2482 17.0784C23.9164 16.9742 24.5014 16.3099 24.3913 15.6037C24.3309 15.1656 23.9198 14.8593 23.5027 14.8397C23.2509 14.83 22.9991 14.8319 22.7473 14.8338C22.5355 14.8354 22.3238 14.8369 22.1121 14.8317C21.9875 15.5323 21.8655 16.2333 21.7435 16.9343C21.6504 17.4691 21.5574 18.0039 21.4631 18.5388C21.5616 18.5374 21.6602 18.5363 21.7588 18.5352L21.759 18.5352L21.7592 18.5352L21.7594 18.5352L21.7596 18.5352L21.7599 18.5352ZM22.5104 15.8901L22.5105 15.8899L22.5105 15.8897L22.5105 15.8895L22.5106 15.8893L22.5106 15.8891L22.5106 15.8889C22.5393 15.7263 22.568 15.5638 22.5975 15.4016C22.6986 15.4055 22.801 15.4023 22.9037 15.3992C23.1259 15.3923 23.3492 15.3854 23.5621 15.4505C23.9006 15.6037 23.8525 16.1077 23.6111 16.3321C23.3724 16.5726 23.0437 16.5595 22.7248 16.5469C22.6114 16.5424 22.4992 16.5379 22.3928 16.545C22.4334 16.3268 22.4719 16.1084 22.5104 15.8901ZM9.79175 17.9715C9.44366 17.5548 9.35183 16.9163 9.62732 16.4354C9.81274 16.097 10.1486 15.8646 10.5098 15.7578C11.1876 15.5565 11.9546 16.0222 12.1549 16.6999C12.2511 17.0837 12.21 17.5174 11.9826 17.8469C11.5226 18.586 10.3305 18.651 9.79175 17.9715ZM11.6791 17.3695C11.9319 16.7515 11.2759 16.0623 10.6576 16.2395C10.0454 16.3206 9.71216 17.1469 10.1381 17.6207C10.5316 18.1781 11.4736 18.0178 11.6791 17.3695ZM12.9193 15.7435C12.7566 15.6741 12.5887 15.8717 12.6193 16.0338C12.613 16.6018 12.6141 17.1697 12.6152 17.7378V17.7379V17.7379V17.738V17.7381V17.7381V17.7383C12.6163 18.2709 12.6174 18.8037 12.6123 19.3366C12.6146 19.3767 12.6145 19.4181 12.6143 19.4598V19.4598V19.4598V19.4598V19.4599V19.4599C12.6138 19.5887 12.6133 19.721 12.6866 19.83C12.8231 19.8861 13.0907 19.9074 13.0924 19.6973C13.1163 19.3394 13.1105 18.9803 13.1046 18.6214V18.6214L13.1046 18.6213C13.1019 18.4542 13.0992 18.2871 13.0994 18.1202C13.7388 18.6314 14.8189 18.5352 15.2291 17.7747C15.648 17.1033 15.3174 16.1344 14.6002 15.8415C14.1218 15.5877 13.5411 15.7302 13.1362 16.0623C13.1194 16.031 13.1076 15.9925 13.0956 15.9532C13.0654 15.8547 13.0336 15.7511 12.9193 15.7435ZM13.6627 16.2974C14.0781 16.1193 14.6195 16.2591 14.8276 16.6865C15.1057 17.1175 14.8329 17.7222 14.3816 17.8923C13.9294 18.1122 13.3469 17.8344 13.1965 17.3553C13.0268 16.9466 13.284 16.4693 13.6627 16.2974ZM18.1108 18.2146C17.5931 18.5423 16.8742 18.5868 16.352 18.2422C15.6427 17.7026 15.6699 16.447 16.3923 15.9323C16.9634 15.5173 17.9036 15.715 18.186 16.3927C18.284 16.6376 18.3478 16.9243 18.2534 17.1808C18.1725 17.2385 18.0735 17.2411 17.9777 17.2437C17.9523 17.2443 17.9272 17.245 17.9027 17.2467C17.7176 17.2476 17.5324 17.2467 17.3472 17.2458C16.9985 17.2441 16.6497 17.2424 16.3013 17.2529C16.3161 17.2902 16.3302 17.329 16.3445 17.3683C16.4188 17.5728 16.498 17.7909 16.7071 17.8843C17.0919 18.0677 17.5345 17.9582 17.9106 17.8041C18.1336 17.6768 18.3304 18.1015 18.1108 18.2146ZM17.4776 16.2974C17.2616 16.2066 17.0132 16.2048 16.7902 16.268C16.5971 16.3228 16.4978 16.504 16.4054 16.6727C16.3881 16.7042 16.3711 16.7352 16.3538 16.7649C16.8418 16.7729 17.3307 16.772 17.8196 16.7649C17.8025 16.7322 17.7863 16.698 17.77 16.6635C17.7008 16.5175 17.629 16.3658 17.4776 16.2974ZM19.2076 18.1915C19.7175 18.5949 20.4722 18.5494 21.0118 18.2298C21.2515 18.1042 21.039 17.6394 20.7967 17.8148C20.4416 17.9644 20.0271 18.0517 19.6589 17.9012C19.4251 17.8083 19.3344 17.567 19.2508 17.3445C19.239 17.3131 19.2273 17.2821 19.2154 17.252C19.5738 17.2423 19.9322 17.2442 20.2905 17.2461C20.4569 17.247 20.6233 17.2478 20.7897 17.2476C20.8173 17.2457 20.8459 17.2452 20.8748 17.2447C20.9847 17.2427 21.0991 17.2407 21.185 17.1638C21.283 16.7916 21.1527 16.3829 20.9174 16.0917C20.4906 15.6465 19.7314 15.5859 19.2504 15.9777C18.6128 16.5058 18.584 17.6394 19.2076 18.1915ZM19.2749 16.7667C19.3965 16.4621 19.6466 16.1807 20.0017 16.2253C20.355 16.1781 20.6436 16.4301 20.7337 16.7658C20.2475 16.772 19.7612 16.7711 19.2749 16.7667ZM25.9332 16.4149C25.5702 16.1718 25.1224 16.3749 24.825 16.6296L24.4761 16.317C24.7673 16.0561 25.1172 15.8424 25.5142 15.8174C25.8544 15.7969 26.255 15.8317 26.4938 16.1122C26.6722 16.301 26.701 16.5868 26.6599 16.8353C26.594 17.2602 26.5177 17.6832 26.4415 18.1064L26.4414 18.1072L26.4412 18.1079C26.4155 18.2509 26.3897 18.3939 26.3643 18.537C26.1754 18.5361 25.9865 18.5352 25.7985 18.5352L25.8649 18.2253C25.5002 18.5984 24.8924 18.7756 24.4341 18.4746C24.0021 18.179 24.0956 17.5013 24.4542 17.1843C24.8959 16.7622 25.5632 16.7943 26.1063 16.9573C26.1002 16.9138 26.098 16.8666 26.0958 16.8186V16.8186C26.0886 16.6621 26.081 16.496 25.9332 16.4149ZM26.0241 17.4292C25.6839 17.2903 25.2632 17.1959 24.9361 17.4176C24.714 17.561 24.63 17.9537 24.9073 18.0873C25.3892 18.301 25.8868 17.8923 26.0241 17.4292ZM27.1744 16.696C27.1062 16.4315 27.0379 16.167 26.9687 15.9029H27.608C27.675 16.1753 27.7388 16.4485 27.8026 16.7218C27.8772 17.0407 27.9517 17.3597 28.0313 17.6777C28.27 17.3076 28.4868 16.9243 28.7035 16.541C28.8242 16.3276 28.9449 16.1141 29.0694 15.9029C29.2785 15.9029 29.4875 15.9038 29.6974 15.9047L29.7 15.9047C29.4222 16.3616 29.1463 16.8197 28.8704 17.2779C28.3914 18.0733 27.9124 18.8687 27.4234 19.6581C27.2911 19.6563 27.1587 19.6553 27.0264 19.6543C26.9602 19.6539 26.894 19.6534 26.8279 19.6528C26.9178 19.5074 27.0087 19.3626 27.0997 19.2178C27.275 18.9387 27.4503 18.6596 27.6185 18.3758C27.464 17.818 27.3192 17.2568 27.1744 16.696Z" fill="white"/>
</svg>