<svg xmlns="http://www.w3.org/2000/svg" width="32" height="32" viewBox="0 0 32 32" fill="none">
  <path fill-rule="evenodd" clip-rule="evenodd" d="M16 29.3334C23.364 29.3334 29.3333 23.364 29.3333 16C29.3333 8.63602 23.364 2.66669 16 2.66669C8.63599 2.66669 2.66666 8.63602 2.66666 16C2.66666 23.364 8.63599 29.3334 16 29.3334ZM11.196 20.7374C11.2743 20.6318 11.3726 20.5427 11.4854 20.4752C11.5982 20.4076 11.7231 20.363 11.8531 20.3438C11.9832 20.3246 12.1157 20.3312 12.2432 20.3633C12.3706 20.3954 12.4905 20.4522 12.596 20.5307C13.5667 21.2507 14.7387 21.6667 16 21.6667C17.2613 21.6667 18.4333 21.2494 19.404 20.5307C19.5091 20.4489 19.6296 20.3889 19.7582 20.3543C19.8868 20.3196 20.0211 20.3111 20.1531 20.329C20.2851 20.347 20.4122 20.3912 20.5269 20.459C20.6416 20.5268 20.7416 20.6168 20.821 20.7237C20.9004 20.8307 20.9577 20.9524 20.9894 21.0818C21.0211 21.2112 21.0266 21.3457 21.0057 21.4772C20.9847 21.6088 20.9377 21.7348 20.8673 21.848C20.797 21.9611 20.7047 22.059 20.596 22.136C19.269 23.1282 17.6569 23.6651 16 23.6667C14.3431 23.6651 12.731 23.1282 11.404 22.136C11.191 21.9781 11.0494 21.7421 11.0104 21.4798C10.9714 21.2175 11.0381 20.9504 11.196 20.7374ZM21.3333 14C21.3333 15.104 20.736 16 20 16C19.264 16 18.6667 15.104 18.6667 14C18.6667 12.896 19.264 12 20 12C20.736 12 21.3333 12.896 21.3333 14ZM12 16C12.736 16 13.3333 15.104 13.3333 14C13.3333 12.896 12.736 12 12 12C11.264 12 10.6667 12.896 10.6667 14C10.6667 15.104 11.264 16 12 16Z" fill="#658C4A"/>
</svg>