<svg xmlns="http://www.w3.org/2000/svg" width="30" height="10" viewBox="0 0 30 10" fill="none">
  <path d="M9.95542 3.16602H9.94482V3.16701C9.94842 3.16668 9.9514 3.16639 9.95542 3.16602Z" fill="#168F8C"/>
  <path d="M10.0188 3.07349V8.98492H11.4016V4.55462C11.4016 4.22374 11.2259 3.22413 10.0188 3.07349Z" fill="#0CA49D"/>
  <path d="M2.66839 7.9564C2.84425 7.9564 2.988 7.93398 3.09968 7.88914C3.21123 7.84426 3.29854 7.78625 3.36166 7.71502C3.42461 7.64379 3.46789 7.56331 3.49156 7.4736C3.51518 7.38401 3.52697 7.29297 3.52697 7.20064C3.52697 7.09514 3.5132 7.00017 3.48557 6.91567C3.45813 6.83126 3.4108 6.76011 3.34381 6.70201C3.27695 6.644 3.18827 6.59912 3.07799 6.56746C2.96772 6.53584 2.82854 6.51997 2.66047 6.51997H1.73112V7.9564H2.66839ZM1.73112 4.20111V5.62569H2.42426C2.57122 5.62569 2.70389 5.61516 2.82203 5.59403C2.9401 5.57289 3.0406 5.53601 3.12326 5.48317C3.20591 5.43047 3.26903 5.35795 3.31231 5.26558C3.35559 5.17326 3.37732 5.05719 3.37732 4.91738C3.37732 4.78022 3.36021 4.66609 3.32612 4.57509C3.29194 4.48405 3.23942 4.41087 3.16856 4.35543C3.0977 4.30002 3.0077 4.26049 2.89884 4.2367C2.78988 4.21296 2.66047 4.20111 2.51092 4.20111H1.73112ZM2.51092 3.19995C2.90733 3.19995 3.24475 3.23696 3.52305 3.31076C3.80127 3.38469 4.02846 3.48882 4.20441 3.62337C4.38022 3.75792 4.50818 3.92153 4.58837 4.11405C4.66838 4.30665 4.70845 4.52164 4.70845 4.75908C4.70845 4.88833 4.69006 5.01302 4.65342 5.13302C4.6166 5.25311 4.55876 5.36516 4.48003 5.46934C4.40125 5.5736 4.30016 5.66919 4.17678 5.7563C4.05331 5.84332 3.90508 5.91853 3.73181 5.98176C4.10979 6.07413 4.38946 6.22314 4.57059 6.42897C4.75173 6.63471 4.84243 6.90121 4.84243 7.22828C4.84243 7.47359 4.79515 7.70189 4.70058 7.91289C4.60609 8.12398 4.46749 8.30797 4.28503 8.46489C4.10262 8.62186 3.87745 8.74452 3.60962 8.83291C3.34191 8.92134 3.03599 8.96547 2.6921 8.96547H0.399994V3.19995H2.51092Z" fill="#0CA49D"/>
  <path d="M8.8437 4.3711C8.80429 4.43446 8.76303 4.4819 8.71962 4.51356C8.67633 4.54522 8.62056 4.56105 8.55229 4.56105C8.4919 4.56105 8.42693 4.54191 8.35734 4.50366C8.2878 4.46541 8.20898 4.42257 8.12109 4.37508C8.03312 4.32759 7.93265 4.2847 7.81978 4.24645C7.70696 4.2082 7.57825 4.1891 7.43375 4.1891C7.18435 4.1891 6.99859 4.24251 6.87653 4.34939C6.75447 4.45617 6.69337 4.60063 6.69337 4.78267C6.69337 4.89878 6.73019 4.99504 6.80364 5.07149C6.8771 5.14803 6.9737 5.214 7.09321 5.26941C7.21263 5.32477 7.34921 5.37561 7.50277 5.42173C7.65633 5.46794 7.81318 5.51936 7.97334 5.57605C8.13349 5.63282 8.29048 5.69941 8.444 5.77587C8.5976 5.8524 8.73418 5.94999 8.8536 6.06871C8.97307 6.18743 9.06953 6.33185 9.14303 6.50199C9.21649 6.67214 9.25331 6.87731 9.25331 7.11731C9.25331 7.38385 9.20743 7.63315 9.11554 7.8652C9.02357 8.09738 8.89029 8.29989 8.71575 8.47265C8.54107 8.64549 8.32585 8.78128 8.06993 8.8802C7.81389 8.9792 7.52305 9.02863 7.19755 9.02863C7.019 9.02863 6.83712 9.01015 6.65211 8.97327C6.46697 8.93631 6.28781 8.88417 6.11455 8.81688C5.9412 8.74962 5.7784 8.66986 5.62616 8.57753C5.47375 8.48521 5.34122 8.38231 5.22835 8.26881L5.62216 7.64363C5.65374 7.59875 5.695 7.56121 5.7462 7.53087C5.7974 7.50054 5.85318 7.48538 5.9137 7.48538C5.99235 7.48538 6.07171 7.5104 6.15194 7.56054C6.23199 7.61069 6.32256 7.66605 6.42369 7.72676C6.52472 7.78747 6.64089 7.84282 6.77219 7.89297C6.90341 7.94306 7.05837 7.96813 7.23696 7.96813C7.47844 7.96813 7.66622 7.91468 7.80012 7.80789C7.93397 7.70102 8.00092 7.53154 8.00092 7.2994C8.00092 7.1648 7.9641 7.05541 7.89069 6.97091C7.81719 6.88655 7.72059 6.8166 7.60125 6.76115C7.48161 6.70579 7.34578 6.65697 7.19354 6.61479C7.0413 6.57265 6.88502 6.52578 6.72495 6.47427C6.56471 6.42285 6.40851 6.35957 6.25627 6.2844C6.1039 6.20919 5.96803 6.11028 5.84874 5.98762C5.72914 5.86492 5.63263 5.71193 5.55917 5.52856C5.48571 5.34524 5.4489 5.11902 5.4489 4.84992C5.4489 4.63366 5.49218 4.42256 5.57888 4.21674C5.66558 4.01099 5.79283 3.82767 5.96086 3.66677C6.12893 3.50591 6.3351 3.37724 6.57918 3.28089C6.82335 3.18463 7.10297 3.13647 7.41809 3.13647C7.59395 3.13647 7.76528 3.15036 7.93208 3.17808C8.0987 3.20572 8.25697 3.24666 8.40661 3.30074C8.55634 3.35482 8.69604 3.41946 8.82602 3.49463C8.956 3.56984 9.07213 3.65487 9.17453 3.74985L8.8437 4.3711Z" fill="#0CA49D"/>
  <path d="M11.5532 0.942869C11.5502 0.89454 11.5447 0.846963 11.5374 0.800049C11.8468 1.12093 12.2887 1.30903 12.7672 1.27865C12.9961 1.26406 13.2102 1.20074 13.4007 1.09979C13.2527 1.35926 13.1759 1.6636 13.1962 1.98435C13.2212 2.38142 13.3902 2.73462 13.6486 2.99665C13.5164 2.9699 13.3788 2.9596 13.2378 2.96862C12.6779 3.00417 12.2054 3.32996 11.9552 3.79074C11.8563 3.10963 11.3306 2.58013 10.6732 2.46362C11.2287 2.19084 11.5946 1.6013 11.5532 0.942869Z" fill="#F9AD3C"/>
  <path d="M13.9259 6.62634C13.9892 6.62634 14.0439 6.61904 14.0897 6.60445C14.1355 6.58986 14.1729 6.56952 14.202 6.54343C14.2317 6.51655 14.2535 6.48507 14.2672 6.44898C14.281 6.41215 14.2879 6.37187 14.2879 6.3281C14.2879 6.24289 14.2577 6.17572 14.1973 6.1266C14.137 6.07668 14.0466 6.05174 13.9259 6.05174H13.5707V6.62634H13.9259ZM13.5707 5.32972V5.89283H13.864C13.9266 5.89283 13.9808 5.88593 14.0267 5.87209C14.0733 5.85829 14.1114 5.8391 14.1412 5.81452C14.1718 5.78993 14.1943 5.7604 14.2088 5.72586C14.2233 5.69053 14.2306 5.65215 14.2306 5.61072C14.2306 5.51322 14.2016 5.44221 14.1435 5.39769C14.0855 5.35236 13.9954 5.32972 13.8732 5.32972H13.5707ZM13.8732 5.15356C13.974 5.15356 14.0607 5.16351 14.1332 5.1835C14.2065 5.20344 14.2665 5.23187 14.3131 5.26871C14.3604 5.30554 14.3951 5.35086 14.4173 5.40458C14.4394 5.45755 14.4505 5.51743 14.4505 5.58424C14.4505 5.62492 14.444 5.66405 14.431 5.70168C14.4188 5.73851 14.4001 5.77309 14.3749 5.80532C14.3497 5.83755 14.3176 5.86674 14.2787 5.89283C14.2405 5.91816 14.1954 5.9389 14.1435 5.95499C14.2642 5.97803 14.3547 6.02141 14.415 6.08512C14.4761 6.14809 14.5067 6.231 14.5067 6.33384C14.5067 6.40371 14.4937 6.46742 14.4677 6.52499C14.4425 6.58256 14.4051 6.63209 14.3554 6.67356C14.3066 6.71499 14.2463 6.74723 14.1745 6.77026C14.1027 6.79255 14.021 6.80365 13.9293 6.80365H13.3497V5.15356H13.8732Z" fill="#0CA49D"/>
  <path d="M15.6801 6.19107L15.4224 5.51972C15.4147 5.49978 15.4067 5.47675 15.3983 5.45066C15.3899 5.42377 15.3819 5.39539 15.3743 5.36545C15.3582 5.42762 15.3418 5.47944 15.325 5.52087L15.0672 6.19107H15.6801ZM16.1429 6.80365H15.9711C15.9512 6.80365 15.9352 6.79869 15.923 6.7887C15.9107 6.77871 15.9016 6.76606 15.8955 6.75068L15.742 6.35228H15.0054L14.8519 6.75068C14.8473 6.76452 14.8385 6.77681 14.8255 6.78755C14.8126 6.7983 14.7965 6.80365 14.7774 6.80365H14.6056L15.262 5.15356H15.4865L16.1429 6.80365Z" fill="#0CA49D"/>
  <path d="M17.6889 5.15356V6.80365H17.5777C17.5601 6.80365 17.5453 6.8006 17.5331 6.79445C17.5216 6.7883 17.5101 6.77796 17.4987 6.76337L16.5491 5.51972C16.5506 5.53891 16.5517 5.55775 16.5525 5.57614C16.5532 5.59458 16.5536 5.61187 16.5536 5.62797V6.80365H16.3589V5.15356H16.4735C16.4834 5.15356 16.4918 5.15432 16.4987 5.15586C16.5055 5.15662 16.5116 5.15856 16.517 5.16161C16.5223 5.16391 16.5277 5.16776 16.533 5.17311C16.5384 5.17775 16.5441 5.1839 16.5502 5.19155L17.4998 6.43404C17.4983 6.41405 17.4968 6.39486 17.4953 6.37647C17.4945 6.35728 17.4941 6.33924 17.4941 6.32235V5.15356H17.6889Z" fill="#0CA49D"/>
  <path d="M18.3297 5.87669H18.4133C18.4423 5.87669 18.4656 5.87324 18.4831 5.86634C18.5007 5.85865 18.5167 5.846 18.5312 5.82836L19.0776 5.20654C19.093 5.18655 19.109 5.17275 19.1258 5.16506C19.1426 5.15741 19.1632 5.15356 19.1877 5.15356H19.3755L18.75 5.86404C18.7348 5.88248 18.7199 5.89782 18.7054 5.91011C18.6916 5.92161 18.6768 5.93121 18.6607 5.9389C18.6813 5.9458 18.7 5.95614 18.7168 5.96998C18.7336 5.98303 18.75 6.00032 18.7661 6.02181L19.419 6.80365H19.2266C19.2121 6.80365 19.1995 6.8029 19.1888 6.80135C19.1789 6.79905 19.1701 6.796 19.1625 6.79215C19.1548 6.78755 19.1479 6.78256 19.1418 6.77716C19.1365 6.77106 19.1311 6.76412 19.1258 6.75647L18.5599 6.10126C18.5446 6.08207 18.5282 6.06863 18.5106 6.06094C18.4931 6.05249 18.4663 6.04829 18.4304 6.04829H18.3297V6.80365H18.1085V5.15356H18.3297V5.87669Z" fill="#0CA49D"/>
  <path d="M21.0513 5.41136C21.0444 5.42291 21.0367 5.4317 21.0283 5.43785C21.0207 5.44325 21.0112 5.44594 20.9997 5.44594C20.9867 5.44594 20.9715 5.4394 20.9539 5.42636C20.9363 5.41331 20.9142 5.39907 20.8875 5.38373C20.8615 5.36763 20.8298 5.35304 20.7924 5.34C20.7557 5.32691 20.711 5.32041 20.6584 5.32041C20.6087 5.32041 20.5648 5.32731 20.5266 5.34115C20.4892 5.35419 20.4575 5.37223 20.4315 5.39527C20.4063 5.41826 20.3872 5.44555 20.3743 5.47703C20.3613 5.50771 20.3548 5.5411 20.3548 5.57718C20.3548 5.62325 20.3659 5.66163 20.388 5.69236C20.4109 5.7223 20.4407 5.74799 20.4774 5.76948C20.5148 5.79101 20.5568 5.8098 20.6033 5.8259C20.6507 5.84129 20.6988 5.85738 20.7477 5.87427C20.7973 5.89116 20.8455 5.91035 20.892 5.93184C20.9394 5.95258 20.9814 5.97906 21.0181 6.0113C21.0555 6.04353 21.0853 6.08311 21.1074 6.12993C21.1303 6.17676 21.1417 6.23433 21.1417 6.30264C21.1417 6.37481 21.1296 6.44272 21.1051 6.50644C21.0807 6.5694 21.0448 6.62428 20.9974 6.67115C20.9508 6.71797 20.8932 6.7548 20.8245 6.78169C20.7565 6.80853 20.679 6.82197 20.5919 6.82197C20.485 6.82197 20.388 6.80278 20.3009 6.7644C20.2139 6.72527 20.1394 6.67265 20.0776 6.60663L20.1417 6.50069C20.1478 6.49225 20.1551 6.48535 20.1635 6.47995C20.1726 6.47385 20.1826 6.47076 20.1933 6.47076C20.2032 6.47076 20.2143 6.475 20.2265 6.48345C20.2395 6.4911 20.254 6.50109 20.27 6.51338C20.2861 6.52567 20.3044 6.53907 20.325 6.55366C20.3456 6.56825 20.3689 6.5817 20.3949 6.59399C20.4216 6.60624 20.4518 6.61663 20.4854 6.62507C20.519 6.63272 20.5568 6.63657 20.5988 6.63657C20.6515 6.63657 20.6984 6.62927 20.7397 6.61468C20.7809 6.60014 20.8157 6.57975 20.8439 6.55366C20.8729 6.52682 20.8951 6.49494 20.9104 6.45811C20.9256 6.42123 20.9333 6.38016 20.9333 6.33488C20.9333 6.285 20.9218 6.24432 20.8989 6.21284C20.8768 6.18056 20.8474 6.15372 20.8107 6.13223C20.7741 6.11074 20.7321 6.0927 20.6847 6.07811C20.6373 6.06277 20.5892 6.04738 20.5404 6.03204C20.4915 6.0159 20.4434 5.9975 20.396 5.97677C20.3487 5.95603 20.3067 5.92919 20.27 5.89616C20.2334 5.86317 20.2036 5.8221 20.1807 5.77297C20.1585 5.72305 20.1475 5.66163 20.1475 5.58872C20.1475 5.53035 20.1585 5.47393 20.1807 5.41946C20.2036 5.36494 20.2364 5.31656 20.2792 5.27434C20.3227 5.23211 20.3758 5.19833 20.4384 5.17299C20.5018 5.1477 20.5744 5.13501 20.656 5.13501C20.7477 5.13501 20.8309 5.1496 20.9058 5.17879C20.9814 5.20792 21.0478 5.25015 21.1051 5.30542L21.0513 5.41136Z" fill="#0CA49D"/>
  <path d="M22.0382 6.14614V6.80365H21.816V6.14614L21.2146 5.15356H21.4094C21.4292 5.15356 21.4449 5.15856 21.4563 5.16851C21.4678 5.17775 21.4777 5.19 21.4861 5.20539L21.8618 5.84675C21.8756 5.87363 21.8882 5.89897 21.8996 5.92276C21.9111 5.9458 21.921 5.96919 21.9294 5.99302C21.9378 5.96919 21.9474 5.9458 21.958 5.92276C21.9688 5.89897 21.9806 5.87363 21.9936 5.84675L22.3682 5.20539C22.375 5.19234 22.3846 5.1804 22.3968 5.16966C22.409 5.15892 22.4247 5.15356 22.4437 5.15356H22.6397L22.0382 6.14614Z" fill="#0CA49D"/>
  <path d="M23.5624 6.19107L23.3046 5.51972C23.297 5.49978 23.289 5.47675 23.2806 5.45066C23.2722 5.42377 23.2642 5.39539 23.2566 5.36545C23.2405 5.42762 23.2241 5.47944 23.2073 5.52087L22.9495 6.19107H23.5624ZM24.0252 6.80365H23.8534C23.8335 6.80365 23.8175 6.79869 23.8052 6.7887C23.793 6.77871 23.7839 6.76606 23.7778 6.75068L23.6242 6.35228H22.8877L22.7342 6.75068C22.7296 6.76452 22.7208 6.77681 22.7078 6.78755C22.6948 6.7983 22.6788 6.80365 22.6597 6.80365H22.4879L23.1443 5.15356H23.3688L24.0252 6.80365Z" fill="#0CA49D"/>
  <path d="M24.6959 5.9527C24.76 5.9527 24.8165 5.94504 24.8654 5.92966C24.915 5.91356 24.9563 5.89128 24.9891 5.86289C25.0227 5.83371 25.0479 5.79917 25.0647 5.75925C25.0815 5.71932 25.0899 5.67519 25.0899 5.62682C25.0899 5.52857 25.0578 5.45446 24.9937 5.40458C24.9295 5.35466 24.8333 5.32972 24.705 5.32972H24.4622V5.9527H24.6959ZM25.4542 6.80365H25.2571C25.2167 6.80365 25.1869 6.78791 25.1678 6.75647L24.7417 6.16688C24.7287 6.14844 24.7146 6.1354 24.6993 6.12775C24.6848 6.1193 24.6619 6.11506 24.6305 6.11506H24.4622V6.80365H24.2411V5.15356H24.705C24.8089 5.15356 24.8986 5.16431 24.9742 5.1858C25.0498 5.20654 25.1121 5.23683 25.1609 5.27675C25.2106 5.31668 25.2472 5.36505 25.2709 5.42187C25.2946 5.4779 25.3064 5.54086 25.3064 5.61072C25.3064 5.66904 25.2973 5.72356 25.2789 5.77424C25.2606 5.82486 25.2339 5.87054 25.1987 5.91126C25.1644 5.95115 25.122 5.98533 25.0716 6.01371C25.0219 6.04214 24.9654 6.06363 24.902 6.07823C24.9303 6.09432 24.9547 6.11776 24.9754 6.14844L25.4542 6.80365Z" fill="#0CA49D"/>
  <path d="M25.8997 6.80365H25.6775V5.15356H25.8997V6.80365Z" fill="#0CA49D"/>
  <path d="M27.1913 6.19107L26.9335 5.51972C26.9259 5.49978 26.9179 5.47675 26.9095 5.45066C26.9011 5.42377 26.8931 5.39539 26.8854 5.36545C26.8694 5.42762 26.853 5.47944 26.8362 5.52087L26.5784 6.19107H27.1913ZM27.6541 6.80365H27.4823C27.4624 6.80365 27.4464 6.79869 27.4341 6.7887C27.4219 6.77871 27.4128 6.76606 27.4066 6.75068L27.2531 6.35228H26.5166L26.3631 6.75068C26.3585 6.76452 26.3497 6.77681 26.3367 6.78755C26.3237 6.7983 26.3077 6.80365 26.2886 6.80365H26.1168L26.7731 5.15356H26.9977L27.6541 6.80365Z" fill="#0CA49D"/>
  <path d="M29.2 5.15356V6.80365H28.9778V6.05289H28.0923V6.80365H27.8701V5.15356H28.0923V5.88938H28.9778V5.15356H29.2Z" fill="#0CA49D"/>
  <path d="M13.5719 8.97874H13.3497V7.32861H13.5719V8.97874Z" fill="#0CA49D"/>
  <path d="M15.3216 7.32861V8.97874H15.2105C15.193 8.97874 15.1781 8.97569 15.1659 8.96954C15.1544 8.9634 15.143 8.95301 15.1315 8.93846L14.1819 7.69482C14.1834 7.71401 14.1845 7.7328 14.1853 7.75124C14.1861 7.76968 14.1864 7.78692 14.1864 7.80306V8.97874H13.9917V7.32861H14.1062C14.1162 7.32861 14.1246 7.32941 14.1314 7.33096C14.1383 7.33171 14.1444 7.33361 14.1498 7.3367C14.1551 7.339 14.1605 7.34285 14.1658 7.3482C14.1712 7.3528 14.1769 7.35895 14.183 7.36664L15.1326 8.60909C15.1311 8.58915 15.1296 8.56996 15.1281 8.55152C15.1273 8.53233 15.1269 8.51429 15.1269 8.4974V7.32861H15.3216Z" fill="#0CA49D"/>
  <path d="M17.1641 8.15427C17.1641 8.27786 17.1446 8.3903 17.1057 8.49165C17.0667 8.59299 17.0117 8.67975 16.9407 8.75191C16.8697 8.82407 16.7842 8.88009 16.6841 8.92002C16.5849 8.95915 16.4749 8.97874 16.3542 8.97874H15.7414V7.32861H16.3542C16.4749 7.32861 16.5849 7.3486 16.6841 7.38853C16.7842 7.42766 16.8697 7.48368 16.9407 7.55664C17.0117 7.6288 17.0667 7.71555 17.1057 7.81686C17.1446 7.9182 17.1641 8.03069 17.1641 8.15427ZM16.9361 8.15427C16.9361 8.05293 16.9224 7.96233 16.8949 7.88252C16.8674 7.80266 16.8285 7.7351 16.778 7.67983C16.7277 7.62456 16.6666 7.58233 16.5948 7.55319C16.523 7.52401 16.4428 7.50942 16.3542 7.50942H15.9636V8.79794H16.3542C16.4428 8.79794 16.523 8.78339 16.5948 8.75421C16.6666 8.72502 16.7277 8.68319 16.778 8.62868C16.8285 8.5734 16.8674 8.50584 16.8949 8.42603C16.9224 8.34618 16.9361 8.25558 16.9361 8.15427Z" fill="#0CA49D"/>
  <path d="M19.001 8.15436C19.001 8.27794 18.9815 8.39154 18.9425 8.49518C18.9036 8.59807 18.8486 8.68673 18.7776 8.76119C18.7066 8.83565 18.621 8.89362 18.521 8.93505C18.4217 8.97577 18.3117 8.99611 18.1911 8.99611C18.0704 8.99611 17.9604 8.97577 17.8611 8.93505C17.7619 8.89362 17.6767 8.83565 17.6057 8.76119C17.5347 8.68673 17.4797 8.59807 17.4408 8.49518C17.4018 8.39154 17.3823 8.27794 17.3823 8.15436C17.3823 8.03077 17.4018 7.91753 17.4408 7.81464C17.4797 7.711 17.5347 7.62199 17.6057 7.54748C17.6767 7.47227 17.7619 7.41395 17.8611 7.37247C17.9604 7.33104 18.0704 7.3103 18.1911 7.3103C18.3117 7.3103 18.4217 7.33104 18.521 7.37247C18.621 7.41395 18.7066 7.47227 18.7776 7.54748C18.8486 7.62199 18.9036 7.711 18.9425 7.81464C18.9815 7.91753 19.001 8.03077 19.001 8.15436ZM18.773 8.15436C18.773 8.05301 18.7593 7.96206 18.7318 7.88145C18.7043 7.80084 18.6653 7.73288 18.6149 7.67761C18.5645 7.62159 18.5034 7.57861 18.4316 7.54868C18.3598 7.5187 18.2796 7.50375 18.1911 7.50375C18.1032 7.50375 18.0234 7.5187 17.9517 7.54868C17.8799 7.57861 17.8184 7.62159 17.7672 7.67761C17.7168 7.73288 17.6778 7.80084 17.6503 7.88145C17.6229 7.96206 17.6091 8.05301 17.6091 8.15436C17.6091 8.25566 17.6229 8.34666 17.6503 8.42727C17.6778 8.50708 17.7168 8.57504 17.7672 8.63106C17.8184 8.68633 17.8799 8.72896 17.9517 8.75889C18.0234 8.78807 18.1032 8.80267 18.1911 8.80267C18.2796 8.80267 18.3598 8.78807 18.4316 8.75889C18.5034 8.72896 18.5645 8.68633 18.6149 8.63106C18.6653 8.57504 18.7043 8.50708 18.7318 8.42727C18.7593 8.34666 18.773 8.25566 18.773 8.15436Z" fill="#0CA49D"/>
  <path d="M20.6488 7.32861V8.97874H20.5377C20.5202 8.97874 20.5053 8.97569 20.4931 8.96954C20.4816 8.9634 20.4702 8.95301 20.4587 8.93846L19.5091 7.69482C19.5106 7.71401 19.5117 7.7328 19.5125 7.75124C19.5133 7.76968 19.5136 7.78692 19.5136 7.80306V8.97874H19.3189V7.32861H19.4335C19.4434 7.32861 19.4518 7.32941 19.4587 7.33096C19.4655 7.33171 19.4716 7.33361 19.477 7.3367C19.4823 7.339 19.4877 7.34285 19.4931 7.3482C19.4984 7.3528 19.5041 7.35895 19.5102 7.36664L20.4598 8.60909C20.4583 8.58915 20.4568 8.56996 20.4553 8.55152C20.4545 8.53233 20.4541 8.51429 20.4541 8.4974V7.32861H20.6488Z" fill="#0CA49D"/>
  <path d="M22.0811 8.79679L22.08 8.97874H21.0685V7.32861H22.08V7.51057H21.2907V8.05868H21.9299V8.23373H21.2907V8.79679H22.0811Z" fill="#0CA49D"/>
  <path d="M23.2304 7.58666C23.2236 7.59815 23.2159 7.607 23.2075 7.61314C23.1999 7.61849 23.1904 7.62119 23.1789 7.62119C23.1659 7.62119 23.1506 7.61469 23.133 7.6016C23.1155 7.58856 23.0934 7.57437 23.0666 7.55902C23.0407 7.54288 23.0089 7.52829 22.9715 7.51525C22.9349 7.5022 22.8902 7.4957 22.8375 7.4957C22.7879 7.4957 22.744 7.5026 22.7058 7.5164C22.6684 7.52944 22.6366 7.54748 22.6107 7.57052C22.5855 7.59356 22.5664 7.62079 22.5534 7.65228C22.5404 7.68301 22.5339 7.71639 22.5339 7.75247C22.5339 7.79855 22.545 7.83693 22.5671 7.86761C22.5901 7.89755 22.6198 7.92328 22.6565 7.94477C22.6939 7.96626 22.7359 7.9851 22.7825 8.00119C22.8299 8.01653 22.878 8.03267 22.9269 8.04956C22.9765 8.06645 23.0246 8.08564 23.0712 8.10713C23.1186 8.12787 23.1605 8.15436 23.1972 8.18659C23.2346 8.21883 23.2644 8.25836 23.2866 8.30518C23.3095 8.35201 23.3209 8.40958 23.3209 8.47794C23.3209 8.5501 23.3087 8.61802 23.2843 8.68173C23.2598 8.7447 23.2239 8.79957 23.1766 8.8464C23.13 8.89322 23.0723 8.9301 23.0036 8.95694C22.9356 8.98382 22.8581 8.99726 22.7711 8.99726C22.6641 8.99726 22.5671 8.97807 22.4801 8.93969C22.393 8.90052 22.3186 8.84794 22.2567 8.78193L22.3209 8.67598C22.327 8.66754 22.3342 8.66064 22.3426 8.65525C22.3518 8.6491 22.3617 8.64605 22.3724 8.64605C22.3824 8.64605 22.3934 8.65025 22.4056 8.65869C22.4186 8.66639 22.4331 8.67638 22.4492 8.68863C22.4652 8.70092 22.4835 8.71436 22.5042 8.72896C22.5248 8.74355 22.5481 8.75699 22.5741 8.76924C22.6008 8.78153 22.6309 8.79192 22.6645 8.80032C22.6981 8.80802 22.7359 8.81186 22.7779 8.81186C22.8306 8.81186 22.8776 8.80457 22.9188 8.78998C22.9601 8.77538 22.9948 8.75504 23.0231 8.72896C23.0521 8.70207 23.0743 8.67024 23.0895 8.63336C23.1048 8.59653 23.1125 8.55545 23.1125 8.51017C23.1125 8.46025 23.101 8.41957 23.0781 8.38809C23.0559 8.35585 23.0265 8.32901 22.9899 8.30748C22.9532 8.28599 22.9112 8.26795 22.8638 8.25336C22.8165 8.23802 22.7684 8.22267 22.7195 8.20733C22.6706 8.19119 22.6225 8.17275 22.5752 8.15206C22.5278 8.13132 22.4858 8.10444 22.4492 8.07145C22.4125 8.03842 22.3828 7.99734 22.3598 7.94822C22.3377 7.89834 22.3266 7.83693 22.3266 7.76397C22.3266 7.70565 22.3377 7.64923 22.3598 7.59471C22.3828 7.54023 22.4156 7.49186 22.4583 7.44963C22.5019 7.4074 22.555 7.37362 22.6176 7.34829C22.6809 7.32295 22.7535 7.3103 22.8352 7.3103C22.9269 7.3103 23.0101 7.32489 23.085 7.35403C23.1605 7.38322 23.227 7.42544 23.2843 7.48071L23.2304 7.58666Z" fill="#0CA49D"/>
  <path d="M23.8569 8.97874H23.6347V7.32861H23.8569V8.97874Z" fill="#0CA49D"/>
  <path d="M25.1486 8.36616L24.8908 7.69482C24.8832 7.67483 24.8752 7.65184 24.8668 7.62571C24.8584 7.59887 24.8504 7.57043 24.8427 7.5405C24.8267 7.60267 24.8103 7.65449 24.7935 7.69597L24.5357 8.36616H25.1486ZM25.6114 8.97874H25.4396C25.4197 8.97874 25.4037 8.97374 25.3915 8.96375C25.3792 8.9538 25.3701 8.94111 25.364 8.92577L25.2105 8.52733H24.4739L24.3204 8.92577C24.3158 8.93961 24.307 8.95186 24.294 8.9626C24.2811 8.97339 24.265 8.97874 24.2459 8.97874H24.0741L24.7305 7.32861H24.955L25.6114 8.97874Z" fill="#0CA49D"/>
</svg>