<svg width="32" height="32" viewBox="0 0 32 32" fill="none" xmlns="http://www.w3.org/2000/svg">
<rect width="32" height="32" rx="16" fill="#333333"/>
<path d="M21.0207 11.402C20.9146 11.3471 20.8112 11.287 20.7111 11.2218C20.4199 11.0292 20.1529 10.8024 19.9159 10.5461C19.3228 9.86759 19.1013 9.1792 19.0198 8.69723H19.023C18.9549 8.29717 18.9831 8.03833 18.9873 8.03833H16.2862V18.4831C16.2862 18.6233 16.2862 18.7619 16.2803 18.8989C16.2803 18.9159 16.2787 18.9316 16.2777 18.95C16.2777 18.9575 16.2777 18.9654 16.276 18.9732C16.276 18.9752 16.276 18.9772 16.276 18.9791C16.2476 19.3539 16.1274 19.7159 15.9262 20.0333C15.725 20.3508 15.4488 20.6139 15.1221 20.7995C14.7815 20.9933 14.3963 21.0949 14.0045 21.0944C12.746 21.0944 11.726 20.0682 11.726 18.8009C11.726 17.5336 12.746 16.5074 14.0045 16.5074C14.2427 16.5071 14.4794 16.5446 14.706 16.6184L14.7092 13.8682C14.0216 13.7793 13.3231 13.834 12.6576 14.0287C11.9922 14.2233 11.3743 14.5538 10.843 14.9992C10.3774 15.4037 9.98602 15.8864 9.68639 16.4255C9.57237 16.622 9.14217 17.412 9.09007 18.6941C9.05731 19.4218 9.27585 20.1757 9.38004 20.4873V20.4939C9.44557 20.6773 9.6995 21.3035 10.1133 21.8313C10.447 22.2547 10.8412 22.6267 11.2833 22.9352V22.9286L11.2899 22.9352C12.5975 23.8237 14.0474 23.7654 14.0474 23.7654C14.2984 23.7553 15.1391 23.7654 16.0939 23.3129C17.1528 22.8113 17.7557 22.0639 17.7557 22.0639C18.1408 21.6174 18.4471 21.1085 18.6613 20.5591C18.9057 19.9165 18.9873 19.1459 18.9873 18.8379V13.2967C19.0201 13.3164 19.4565 13.6051 19.4565 13.6051C19.4565 13.6051 20.0853 14.0081 21.0662 14.2705C21.77 14.4573 22.7182 14.4966 22.7182 14.4966V11.8151C22.386 11.8512 21.7114 11.7463 21.0207 11.402Z" fill="white"/>
</svg>
