<svg xmlns="http://www.w3.org/2000/svg" width="375" height="596" viewBox="0 0 375 596" fill="none">
  <path d="M1403.46 34.4492H1403.46C1403.05 34.4336 1402.71 34.4204 1402.45 34.4124C1397.44 33.353 1392.15 33.729 1386.87 34.1043C1380.63 34.5481 1374.4 34.9907 1368.67 33.0581C1367.06 32.4666 1365.48 31.8389 1363.93 31.219C1357.93 28.8277 1352.23 26.5552 1345.76 26.9485C1341.74 30.8325 1337.53 29.6919 1333.41 28.5767C1330.52 27.7952 1327.68 27.0257 1324.98 28.0054C1323.38 28.4619 1321.8 29.4795 1320.22 30.4934C1317.36 32.3389 1314.51 34.1734 1311.54 32.596C1310.34 32.7207 1309.16 33.0794 1308.08 33.6526C1307.97 33.6214 1307.87 33.5838 1307.77 33.5479C1307.05 33.2825 1306.59 33.1118 1305.56 36.1956C1303.44 34.1524 1299.52 34.9619 1296.23 35.6409C1294.62 35.9717 1293.17 36.2715 1292.15 36.1956C1290.09 36.7713 1287.93 36.8135 1285.85 36.3186C1283.78 35.824 1281.84 34.8071 1280.22 33.3555C1279.2 32.6958 1278.32 31.8699 1277.5 31.0935C1275.19 28.916 1273.3 27.1311 1269.68 30.5154C1266.53 27.2127 1253.94 27.4768 1250.79 31.242C1249.78 34.1839 1249.68 34.8428 1249.63 35.1987C1249.6 35.3557 1249.59 35.4539 1249.51 35.6629C1249.45 35.8098 1249.36 36.0115 1249.22 36.3277C1248.4 38.1111 1246.07 40.9182 1243.77 40.687C1240.15 42.9326 1236.06 44.207 1231.86 44.397C1227.66 44.5872 1223.48 43.687 1219.69 41.7769C1210.25 45.0794 1199.01 47.8538 1189.85 42.3384C1187.4 42.3384 1186.76 41.1948 1185.04 38.0945C1184.55 37.2171 1183.97 36.1829 1183.24 34.9736C1181.69 31.0916 1179.94 32.2319 1178.19 33.3655C1177.15 34.0449 1176.11 34.7215 1175.12 34.313C1169.57 34.617 1164.01 34.3628 1158.5 33.5537C1155.72 30.8403 1154.77 30.5283 1152.81 29.8872C1151.95 29.6074 1150.91 29.2649 1149.44 28.6328C1144.39 27.6912 1139.3 27.8352 1134.27 27.9776H1134.27C1129.07 28.1248 1123.94 28.27 1119 27.2127C1115.89 26.2837 1112.39 26.6577 1108.83 27.0366C1105.19 27.4258 1101.49 27.8201 1098.13 26.8164C1093.78 21.0359 1088.37 22.8904 1083.28 24.6338C1078.58 26.2473 1074.15 27.7659 1071.09 23.0515C1070.56 22.2761 1070.08 21.3936 1069.61 20.5374C1068.1 17.7476 1066.73 15.2424 1064.23 17.6685C1062.97 18.1658 1061.73 17.0921 1060.49 16.0225C1059.84 15.458 1059.18 14.8948 1058.53 14.564C1055.31 14.1826 1052.73 15.4048 1050.24 16.5798C1047.12 18.0496 1044.17 19.4451 1040.34 17.5364C1037.76 22.6848 1035.15 20.8103 1032.55 18.9512L1032.55 18.949C1031.82 18.4238 1031.09 17.8999 1030.36 17.5364C1027.07 16.4519 1022.94 16.7468 1019.29 17.0073L1019.28 17.0081C1018.63 17.0549 1017.99 17.1006 1017.37 17.137C1017.12 17.1516 1016.88 17.1648 1016.64 17.1758C1016.35 17.1892 1016.06 17.1997 1015.79 17.2061C1014.12 15.263 1012.78 14.9065 1011.34 14.5237C1010.06 14.1841 1008.7 13.8237 1006.97 12.3181C1005.55 11.3677 1004.11 11.751 1002.67 12.136C1001.2 12.5271 999.729 12.9202 998.253 11.9219C994.982 11.6619 991.666 12.7024 988.331 13.7488L988.329 13.7495C983.195 15.3609 978.016 16.9863 972.883 13.9036C966.314 10.0896 958.889 8.19606 951.385 8.42116C951.918 13.5305 944.685 12.7901 936.927 11.9956C930.043 11.2908 922.746 10.5437 920.097 13.8042C914.865 16.6787 909.714 14.5225 904.581 12.3738C901.221 10.9673 897.868 9.56398 894.506 9.57716C890.319 4.49562 886.215 5.95583 882.05 7.43825C879.014 8.51833 875.945 9.61012 872.787 8.1902C870.557 7.20778 868.119 6.86183 865.72 7.18629C863.321 7.51125 861.046 8.49538 859.126 10.0393C858.524 10.6563 858.131 11.106 857.848 11.429L857.846 11.4321C857.465 11.8674 857.285 12.0733 857.065 12.1504C856.988 12.1773 856.906 12.1885 856.809 12.1882C856.771 12.1882 856.73 12.1863 856.686 12.1829C856.556 12.1729 856.399 12.1494 856.2 12.1194C855.881 12.0718 855.452 12.0073 854.845 11.9551C854.216 18.4404 853.171 15.8941 852.275 13.7105C851.962 12.9475 851.667 12.2288 851.415 11.9551C848.864 14.2832 846.07 13.355 843.32 12.4412C841.115 11.7085 838.938 10.9851 836.935 11.9551C835.516 10.7918 834.23 10.4876 833.003 10.1975C831.373 9.81203 829.846 9.45094 828.248 7.13332C825.185 8.04567 822.077 6.5757 818.788 5.01979C816.6 3.98488 814.332 2.91212 811.943 2.47658C809.829 2.52614 807.721 2.69972 805.624 2.87282C799.289 3.39552 793.051 3.91017 787.044 0.95729C782.905 -1.10082 778.485 0.56105 774.164 2.18532C771.552 3.16725 768.977 4.13551 766.522 4.26002C764.245 6.54274 763.091 6.53957 761.77 6.53566C761.028 6.53322 760.233 6.53102 759.156 6.93532C758.5 6.71413 757.897 7.43922 757.292 8.16652C756.36 9.28761 755.423 10.4146 754.277 8.09084C752.174 6.93654 749.836 6.33351 747.462 6.33351C745.089 6.33351 742.751 6.93654 740.648 8.09084C738.177 11.3037 735.614 10.0379 733.069 8.78127C731.141 7.82912 729.224 6.88209 727.365 7.89284C724.162 1.51344 721.326 4.71852 718.417 8.00392C716.809 9.8213 715.178 11.6631 713.452 11.9219C704.575 9.84132 694.975 8.355 686.036 11.9219C683.725 11.1841 681.106 11.563 678.605 11.9256H678.604C677.188 12.1306 675.81 12.3301 674.547 12.3181C672.367 12.2976 671.265 13.8714 670.042 15.6194L670.039 15.6231C669.302 16.6753 668.521 17.7908 667.433 18.6592C664.38 21.5757 660.129 20.4043 655.807 19.2132C651.663 18.0711 647.453 16.9111 644.172 19.3196C642.54 18.1626 641.257 19.2647 639.953 20.3843C638.539 21.5979 637.101 22.8325 635.169 21.2351C633.193 21.9607 631.893 22.325 630.894 22.605L630.889 22.6065C628.708 23.2178 627.956 23.4282 624.719 26.1228C620.004 31.8101 611.086 28.3582 605.459 26.1802L605.44 26.1724L605.386 26.1516L604.639 25.8633C604.297 25.7322 603.97 25.6087 603.661 25.4954C600.916 21.6126 599.09 21.575 597.65 21.5452C596.86 21.5286 596.186 21.5147 595.54 20.8718C594.582 20.4729 594.05 19.4343 593.337 18.0427C592.575 16.5537 591.605 14.6607 589.685 12.7146C588.417 12.4351 587.245 11.0232 586.024 9.55177C584.216 7.37306 582.3 5.06496 579.802 6.10939C576.771 3.8506 574.411 5.19459 572.175 6.4673C570.881 7.20412 569.628 7.91701 568.312 7.89284C563.987 12.8801 557.956 10.9382 552.66 9.23293L552.655 9.23146C550.939 8.67897 549.3 8.15138 547.821 7.89284C543.326 6.87843 538.831 7.29323 534.311 7.71022H534.309C530.442 8.06715 526.558 8.4258 522.64 7.89284C518.596 10.638 514.538 9.72072 510.475 8.80226C508.624 8.3838 506.771 7.96535 504.918 7.89284C504.071 8.02638 502.995 7.96071 501.878 7.89259H501.874C498.847 7.70778 495.526 7.50514 495.664 11.1953C490.472 13.6069 484.56 12.8501 479.085 12.1489L479.043 12.1436C478.562 12.082 478.084 12.021 477.611 11.9624C477.215 11.9136 476.822 11.8667 476.432 11.823C476.188 13.7088 476.306 15.5791 476.403 17.1233V17.127C476.506 18.7722 476.586 20.0466 476.18 20.5747C473.251 19.0464 470.387 20.7805 467.493 22.5327C464.695 24.2263 461.87 25.9368 458.931 24.7359C457.298 25.1067 455.655 24.4326 454.017 23.7608C451.426 22.6978 448.848 21.6397 446.34 24.7359C442.014 25.4478 437.688 24.9207 433.359 24.3931C428.05 23.7461 422.736 23.0986 417.413 24.7359C414.211 25.0877 411.049 25.7622 407.97 26.7505C406.532 27.3809 405.249 28.304 404.011 29.1946C400.968 31.3843 398.197 33.3784 394.057 30.3501C391.27 31.0596 388.5 30.4995 385.751 29.9439L385.748 29.9431C383.253 29.438 380.775 28.9368 378.319 29.3926C374.858 29.3926 373.937 30.2312 373.072 31.0191C372.364 31.6643 371.692 32.2754 369.694 32.3645C367.94 34.8684 365.206 33.8723 362.526 32.8953C360.398 32.1196 358.303 31.3562 356.757 32.3645C353.582 28.782 350.378 30.2424 347.177 31.7017C344.477 32.9326 341.778 34.1631 339.099 32.3645C338.66 32.1861 338.256 32.0261 337.882 31.8806L337.442 31.7102C337.211 31.6211 336.992 31.5376 336.784 31.4583L336.758 31.4483C333.82 30.3272 333.02 30.022 329.908 26.7832C327.085 28.7986 323.394 26.7976 319.799 24.8484C319.006 24.4185 318.217 23.9912 317.444 23.6101C316.954 23.3687 316.47 23.1458 315.995 22.9524C313.447 21.1255 311.153 21.4534 308.858 21.7815C306.589 22.1057 304.318 22.4304 301.799 20.6736C300.382 21.1555 299.332 20.3809 298.345 19.6531C296.963 18.6345 295.705 17.7073 293.741 20.4426C291.431 20.1631 290.431 21.783 288.512 24.8904L288.138 25.4954C286.403 31.1875 285.465 30.1511 283.85 28.3674C283.385 27.8538 282.864 27.2781 282.252 26.7832C280.615 27.5933 278.971 27.1636 277.326 26.7339C275.619 26.2876 273.911 25.8411 272.211 26.7832C270.423 24.9697 268.634 26.0576 266.846 27.1455C264.857 28.3555 262.868 29.5657 260.879 26.7832C258.446 28.648 255.017 27.8567 252.075 27.1775C250.64 26.8462 249.32 26.5418 248.289 26.5852C245.141 24.8679 243.158 25.9248 239.853 31.0105C239.006 31.4946 238.26 32.0625 237.568 32.5894L237.564 32.5923C235.094 34.4732 233.308 35.8333 230.064 31.0105C222.622 27.0276 214.872 23.7134 206.897 21.103C203.787 22.1546 200.677 21.4973 197.567 20.8399C194.035 20.0933 190.504 19.3467 186.972 21.103C184.435 21.8594 182.16 20.6682 179.933 19.5017C177.104 18.02 174.351 16.5779 171.234 19.2207C169.163 18.9529 167.079 19.1477 164.992 19.343C162.446 19.5808 159.894 19.8194 157.352 19.2207C156.242 19.4273 155.131 19.7891 154.021 20.1507C150.695 21.2339 147.373 22.3154 144.069 19.2207C143.352 19.2207 142.526 19.3421 141.652 19.4707L141.647 19.4715H141.637C138.909 19.8716 135.704 20.3418 133.776 17.4702C126.725 9.90724 122.224 9.0818 114.261 7.95876C113.058 7.81886 111.85 7.38112 110.641 6.94313C107.863 5.93654 105.082 4.92921 102.362 7.52956C100.079 10.1892 97.7948 8.20705 95.5111 6.22487L95.5096 6.2234C94.6462 5.47438 93.7827 4.72536 92.9193 4.22707C85.239 1.4529 76.0164 3.13722 71.4208 9.90724C65.6882 18.0562 57.9338 17.783 48.719 17.458L48.1279 17.437C45.3849 15.4243 42.9691 16.6253 40.5244 17.8406C38.9576 18.6194 37.3789 19.4043 35.6946 19.3528C34.6874 15.8521 32.9247 17.6353 32.0433 19.3528C30.7096 19.5777 30.5652 19.8401 30.0149 20.8418C29.8379 21.1641 29.6189 21.5625 29.3048 22.0608C22.2855 27.543 15.0774 28.6658 8.93945 19.4849C8.93945 19.6231 7.84949 25.4956 6.43079 31.5791H0V753H1440V47.3684H1437.96C1436.16 41.3284 1433.56 35.3479 1431.95 31.6514C1431.08 29.6419 1430.5 28.3074 1430.5 28.0054C1429.79 35.469 1409.53 34.6846 1403.46 34.4492Z" fill="#E7CEC0"/>
</svg>