<svg xmlns="http://www.w3.org/2000/svg" width="33" height="24" viewBox="0 0 33 24" fill="none">
  <rect width="33" height="24" rx="4" fill="#0742A6"/>
  <path fill-rule="evenodd" clip-rule="evenodd" d="M15.0962 15.2371H13.4275L14.4713 8.83765H16.1399L15.0962 15.2371Z" fill="white"/>
  <path fill-rule="evenodd" clip-rule="evenodd" d="M21.1455 8.99413C20.8163 8.86464 20.2943 8.72168 19.6488 8.72168C18.0009 8.72168 16.8404 9.59304 16.8333 10.8388C16.8196 11.758 17.6642 12.2685 18.2958 12.575C18.9414 12.8881 19.1609 13.0925 19.1609 13.3717C19.1543 13.8004 18.6392 13.998 18.1587 13.998C17.4925 13.998 17.1355 13.8961 16.593 13.6576L16.3733 13.5554L16.1398 14.9919C16.5312 15.1687 17.2522 15.3256 18.0009 15.3325C19.7518 15.3325 20.8917 14.4746 20.9052 13.147C20.9119 12.4185 20.4659 11.8603 19.5045 11.4042C18.9209 11.1114 18.5634 10.9139 18.5634 10.6143C18.5703 10.342 18.8658 10.063 19.5246 10.063C20.0671 10.0494 20.4657 10.1787 20.7676 10.3081L20.9185 10.376L21.1455 8.99413Z" fill="white"/>
  <path fill-rule="evenodd" clip-rule="evenodd" d="M24.1324 8.83765H25.4232L26.7694 15.237H25.2243C25.2243 15.237 25.0731 14.5017 25.0252 14.277H22.8827L22.5325 15.237H20.7816L23.2602 9.36861C23.432 8.95329 23.7344 8.83765 24.1324 8.83765ZM24.0296 11.1795C24.0296 11.1795 23.5008 12.6023 23.3633 12.97H24.7504C24.6817 12.65 24.3657 11.1182 24.3657 11.1182L24.2491 10.5668C24.2 10.7088 24.129 10.904 24.0811 11.0357C24.0486 11.1249 24.0268 11.185 24.0296 11.1795Z" fill="white"/>
  <path fill-rule="evenodd" clip-rule="evenodd" d="M12.0338 8.83765L10.3995 13.2014L10.221 12.3164C9.91883 11.2952 8.97128 10.1857 7.91386 9.634L9.41074 15.2303H11.1754L13.7983 8.83765H12.0338V8.83765Z" fill="white"/>
  <path fill-rule="evenodd" clip-rule="evenodd" d="M8.88203 8.83765H6.19724L6.16977 8.96695C8.26408 9.498 9.6511 10.7781 10.221 12.3167L9.63732 9.37558C9.54123 8.96686 9.24594 8.85113 8.88203 8.83765Z" fill="white"/>
</svg>