<svg xmlns="http://www.w3.org/2000/svg" width="32" height="32" viewBox="0 0 32 32" fill="none">
  <rect width="32" height="32" rx="16" fill="#333333"/>
  <path d="M8.00006 23.4075L9.14802 19.1391C8.22222 17.4764 7.92808 15.5361 8.31959 13.6743C8.71109 11.8125 9.76198 10.1541 11.2794 9.0034C12.7968 7.85271 14.679 7.28691 16.5806 7.40984C18.4821 7.53277 20.2755 8.33617 21.6316 9.67263C22.9877 11.0091 23.8156 12.7889 23.9633 14.6856C24.111 16.5822 23.5687 18.4685 22.4358 19.9981C21.303 21.5278 19.6555 22.5983 17.7959 23.0132C15.9362 23.4282 13.9891 23.1596 12.3117 22.257L8.00006 23.4075ZM12.5196 20.6597L12.7863 20.8176C14.0012 21.5365 15.4202 21.8341 16.8222 21.6638C18.2242 21.4935 19.5304 20.865 20.5373 19.8762C21.5441 18.8874 22.195 17.5939 22.3886 16.1972C22.5822 14.8005 22.3076 13.3791 21.6075 12.1546C20.9075 10.93 19.8213 9.97097 18.5183 9.42701C17.2153 8.88305 15.7687 8.78468 14.4038 9.14723C13.039 9.50977 11.8326 10.3129 10.9727 11.4314C10.1128 12.5499 9.6476 13.921 9.64969 15.331C9.64855 16.5001 9.97242 17.6466 10.5852 18.6428L10.7525 18.918L10.1107 21.3004L12.5196 20.6597Z" fill="white"/>
  <path fill-rule="evenodd" clip-rule="evenodd" d="M18.9915 16.427C18.8352 16.3012 18.6521 16.2126 18.4563 16.168C18.2605 16.1234 18.0571 16.1241 17.8616 16.1699C17.5678 16.2917 17.378 16.7519 17.1882 16.982C17.1481 17.0372 17.0893 17.0759 17.0228 17.0908C16.9562 17.1058 16.8864 17.096 16.8266 17.0632C15.7511 16.6427 14.8496 15.8715 14.2685 14.8749C14.219 14.8127 14.1955 14.7337 14.2031 14.6546C14.2107 14.5755 14.2487 14.5024 14.3092 14.4508C14.5209 14.2415 14.6764 13.9824 14.7612 13.6973C14.78 13.3828 14.7078 13.0695 14.5533 12.7948C14.4338 12.4098 14.2064 12.0669 13.8979 11.8067C13.7389 11.7353 13.5625 11.7113 13.39 11.7377C13.2176 11.7642 13.0565 11.8398 12.9262 11.9556C12.7 12.1505 12.5205 12.3935 12.4008 12.6668C12.2811 12.9401 12.2244 13.2367 12.2348 13.5348C12.2355 13.7022 12.2567 13.8689 12.298 14.0311C12.403 14.4209 12.5644 14.7934 12.7771 15.1366C12.9306 15.3995 13.098 15.6541 13.2788 15.8991C13.8661 16.7041 14.6044 17.3875 15.4527 17.9115C15.8783 18.1778 16.3333 18.3943 16.8085 18.5567C17.3022 18.7801 17.8473 18.8659 18.3858 18.8049C18.6927 18.7585 18.9835 18.6376 19.2325 18.4527C19.4815 18.2678 19.6812 18.0246 19.814 17.7446C19.892 17.5754 19.9157 17.3863 19.8818 17.2031C19.8005 16.8286 19.2988 16.6075 18.9915 16.427Z" fill="white"/>
</svg>